<?xml version="1.0" encoding="UTF-8" standalone="no"?>
<svg
   xmlns:dc="http://purl.org/dc/elements/1.1/"
   xmlns:cc="http://creativecommons.org/ns#"
   xmlns:rdf="http://www.w3.org/1999/02/22-rdf-syntax-ns#"
   xmlns:svg="http://www.w3.org/2000/svg"
   xmlns="http://www.w3.org/2000/svg"
   xmlns:sodipodi="http://sodipodi.sourceforge.net/DTD/sodipodi-0.dtd"
   xmlns:inkscape="http://www.inkscape.org/namespaces/inkscape"
   inkscape:version="1.0beta2 (2b71d25, 2019-12-03)"
   height="512"
   width="512"
   sodipodi:docname="Han Solo.svg"
   xml:space="preserve"
   viewBox="0 0 511.99999 511.99999"
   y="0px"
   x="0px"
   id="Capa_1"
   version="1.1"><metadata
   id="metadata128"><rdf:RDF><cc:Work
       rdf:about=""><dc:format>image/svg+xml</dc:format><dc:type
         rdf:resource="http://purl.org/dc/dcmitype/StillImage" /><dc:title></dc:title></cc:Work></rdf:RDF></metadata><defs
   id="defs126" /><sodipodi:namedview
   inkscape:current-layer="Capa_1"
   inkscape:window-maximized="1"
   inkscape:window-y="0"
   inkscape:window-x="0"
   inkscape:cy="138.26782"
   inkscape:cx="-83.73088"
   inkscape:zoom="0.58881922"
   showgrid="false"
   id="namedview124"
   inkscape:window-height="700"
   inkscape:window-width="1366"
   inkscape:pageshadow="2"
   inkscape:pageopacity="0"
   guidetolerance="10"
   gridtolerance="10"
   objecttolerance="10"
   borderopacity="1"
   inkscape:document-rotation="0"
   bordercolor="#666666"
   pagecolor="#ffffff" />
<path
   style="fill:#ffffff;stroke-width:2.34618"
   inkscape:connector-curvature="0"
   id="path91"
   d="m 375.62735,167.12916 -88.19807,90.18146 c -3.83774,-7.64383 -8.86807,-14.82029 -15.12353,-21.21387 -6.18119,-6.32003 -13.17448,-11.50132 -20.72696,-15.48217 l 88.19575,-90.17673 c 6.63597,5.29517 13.02832,10.98889 19.07494,17.17132 6.01646,6.14923 11.58975,12.69226 16.77787,19.51999 z m -196.11613,163.844 c 9.10706,9.31162 21.21424,14.43834 34.09172,14.43834 12.8775,0 24.98467,-5.1291 34.08939,-14.43834 18.79883,-19.22105 18.79883,-50.49383 0,-69.71489 -9.10472,-9.30924 -21.21421,-14.43833 -34.08939,-14.43833 -12.87981,0 -24.98929,5.12909 -34.09404,14.43833 -18.79417,19.22106 -18.79417,50.49621 0.002,69.71489 z m 316.25271,-54.17103 c -0.0186,-0.0167 -0.17866,-0.18266 -0.1949,-0.19927 -5.18813,-5.30466 -12.0886,-8.22506 -19.4253,-8.22506 -7.33901,0 -14.2395,2.92276 -19.42529,8.22742 l -22.04953,22.54478 -0.30627,-0.0119 57.09719,-136.25553 c 2.80288,-6.68538 1.3411,-14.44308 -3.68923,-19.5888 l -19.80583,-20.25065 -171.4354,175.28839 c -0.53134,20.99086 -8.58963,41.8204 -24.22362,57.80553 -15.68268,16.03257 -36.52799,24.86259 -58.70281,24.86259 -22.17712,0 -43.02243,-8.83002 -58.70513,-24.86259 -32.36543,-33.09476 -32.36543,-86.94315 0,-120.04029 15.1792,-15.51778 35.19849,-24.26237 56.57745,-24.80804 L 382.87123,36.04304 363.06541,15.792365 C 358.03739,10.651406 350.45474,9.1568045 343.90695,12.020272 L 154.40127,95.041876 c -17.63172,5.418534 -34.54416,13.237914 -50.26399,23.379854 -4.475796,2.88719 -7.420223,7.69602 -8.009565,13.07183 -0.464054,4.25607 0.589342,8.50026 2.904974,11.98055 L 64.314502,178.9721 c -3.401516,-2.36526 -7.557117,-3.44233 -11.71504,-2.96785 -5.26005,0.60021 -9.963235,3.61315 -12.787004,8.18709 C 15.34754,223.83152 4.5327643,271.46427 9.3635651,318.31411 14.263974,365.8828 35.218325,410.73985 68.35641,444.62462 c 38.77634,39.64493 90.33273,61.48035 145.17461,61.48273 0.005,0 0.002,0 0.006,0 38.90861,0 76.787,-11.16919 109.53296,-32.29528 4.4758,-2.88719 7.42021,-7.69838 8.00958,-13.0742 0.46404,-4.25369 -0.59168,-8.49789 -2.90499,-11.97817 l 34.71587,-35.498 c 3.40384,2.36764 7.55016,3.45182 11.71968,2.97023 5.25773,-0.60022 9.96091,-3.61315 12.78468,-8.18948 8.47362,-13.73136 15.27433,-28.43302 20.38125,-43.72067 l 32.14501,1.17908 c 0.21115,0.006 0.42461,0.0118 0.63343,0.0118 4.85401,0 9.2602,-2.05922 12.42969,-5.37582 0.0951,-0.0925 0.19721,-0.17318 0.29003,-0.26807 l 42.43773,-43.3933 c 5.18812,-5.30464 8.049,-12.36012 8.049,-19.86397 0,-7.50385 -2.86088,-14.55696 -7.99797,-19.80942 z" />
<g
   id="g93">
</g>
<g
   id="g95">
</g>
<g
   id="g97">
</g>
<g
   id="g99">
</g>
<g
   id="g101">
</g>
<g
   id="g103">
</g>
<g
   id="g105">
</g>
<g
   id="g107">
</g>
<g
   id="g109">
</g>
<g
   id="g111">
</g>
<g
   id="g113">
</g>
<g
   id="g115">
</g>
<g
   id="g117">
</g>
<g
   id="g119">
</g>
<g
   id="g121">
</g>
</svg>
