<?xml version="1.0" encoding="UTF-8" standalone="no"?>
<svg
   xmlns:dc="http://purl.org/dc/elements/1.1/"
   xmlns:cc="http://creativecommons.org/ns#"
   xmlns:rdf="http://www.w3.org/1999/02/22-rdf-syntax-ns#"
   xmlns:svg="http://www.w3.org/2000/svg"
   xmlns="http://www.w3.org/2000/svg"
   xmlns:sodipodi="http://sodipodi.sourceforge.net/DTD/sodipodi-0.dtd"
   xmlns:inkscape="http://www.inkscape.org/namespaces/inkscape"
   width="512"
   height="512"
   viewBox="0 0 135.46666 135.46667"
   version="1.1"
   id="svg1936"
   inkscape:version="1.0beta2 (2b71d25, 2019-12-03)"
   sodipodi:docname="FireBolt.svg">
  <defs
     id="defs1930" />
  <sodipodi:namedview
     id="base"
     pagecolor="#ffffff"
     bordercolor="#666666"
     borderopacity="1.0"
     inkscape:pageopacity="0.0"
     inkscape:pageshadow="2"
     inkscape:zoom="0.49497475"
     inkscape:cx="100.95723"
     inkscape:cy="438.33004"
     inkscape:document-units="mm"
     inkscape:current-layer="layer1"
     inkscape:document-rotation="0"
     showgrid="false"
     units="px"
     inkscape:window-width="1366"
     inkscape:window-height="700"
     inkscape:window-x="0"
     inkscape:window-y="0"
     inkscape:window-maximized="0" />
  <metadata
     id="metadata1933">
    <rdf:RDF>
      <cc:Work
         rdf:about="">
        <dc:format>image/svg+xml</dc:format>
        <dc:type
           rdf:resource="http://purl.org/dc/dcmitype/StillImage" />
        <dc:title />
      </cc:Work>
    </rdf:RDF>
  </metadata>
  <g
     inkscape:label="Camada 1"
     inkscape:groupmode="layer"
     id="layer1">
    <path
       id="path2090"
       style="fill:#ffffff;stroke-width:0.268414"
       d="M 27.106309,3.6417786 C 38.038299,19.266202 10.006158,10.597503 3.4777782,4.3047876 3.7617582,15.063388 30.327219,31.047633 43.035049,23.663813 50.835179,19.131899 35.020249,4.9666736 27.106309,3.6417786 Z m 26.23767,15.3747724 0.23461,0.394292 c 32.30748,26.573059 -1.07965,47.038863 -17.43873,13.093258 4.24713,22.145826 -21.05038,11.86426 -24.06468,-8.227922 -17.3583808,36.393818 32.53569,36.616197 34.07183,61.50012 0.86698,14.0381 -20.88789,5.34374 -30.56558,-13.110309 65.4736,140.09478 201.166471,-3.359253 37.76255,-53.649439 z M 99.795409,55.27532 116.30965,74.804877 100.19073,105.62522 67.120399,116.39976 50.606679,96.870199 66.725589,66.049857 Z m -10.8691,12.699484 c -0.5736,-0.0046 -1.15161,0.01862 -1.73065,0.06925 -4.62336,0.404517 -9.47572,2.472677 -13.68392,6.031156 -4.2082,3.558479 -7.05345,8.000069 -8.22068,12.491739 -1.16909,4.50051 -0.60649,9.21454 2.31768,12.67261 2.92427,3.458201 7.47983,4.796681 12.11193,4.391471 4.62327,-0.40461 9.47582,-2.47276 13.68392,-6.031161 4.20809,-3.55839 7.053441,-8.00007 8.220681,-12.49174 1.16909,-4.50051 0.60657,-9.21443 -2.317691,-12.672613 -2.55873,-3.02591 -6.36611,-4.428638 -10.38127,-4.460708 z m -0.13539,2.556949 c 3.15936,-0.0046 6.00128,0.969457 8.01294,2.963127 -2.08303,-0.882521 -4.43664,-1.241756 -6.85643,-1.100193 -4.421,0.258532 -9.1228,2.144702 -13.15785,5.556772 -4.03505,3.41206 -6.67612,7.73548 -7.66568,12.05197 -0.54155,2.36275 -0.57833,4.74264 -0.0543,6.94325 -1.86473,-2.64555 -2.23625,-6.13927 -1.30173,-9.73636 1.0145,-3.90433 3.55788,-7.93531 7.39645,-11.18123 3.83857,-3.245915 8.23583,-5.084245 12.25455,-5.435842 0.4628,-0.04047 0.92067,-0.06084 1.37201,-0.06149 z m 2.35954,4.39198 c 2.42554,0.02536 4.61623,0.648596 6.37532,1.856736 -1.31495,-0.25672 -2.69154,-0.34228 -4.09019,-0.26045 -4.421,0.25853 -9.1228,2.14418 -13.15785,5.55625 -4.03505,3.41206 -6.67569,7.73538 -7.66517,12.05197 -0.31327,1.36561 -0.45777,2.73703 -0.42323,4.07624 -1.0276,-2.21196 -1.20743,-4.85273 -0.57102,-7.6295 0.85007,-3.70777 3.18432,-7.59245 6.82336,-10.66964 3.63882,-3.07701 7.85754,-4.733657 11.6551,-4.955767 0.35552,-0.0208 0.70718,-0.02946 1.05368,-0.02584 z m 26.943571,1.991096 6.50968,7.69823 -15.47864,29.596651 -6.50916,-7.69823 z m -23.682791,2.13372 c 1.9088,-0.009 3.6774,0.34827 5.21209,1.06505 0.01,0.19484 0.0146,0.39128 0.0155,0.58859 -0.88803,-0.0915 -1.79664,-0.11054 -2.71508,-0.0568 -4.421,0.25853 -9.1228,2.14418 -13.15786,5.55625 -4.03505,3.41207 -6.6756,7.73549 -7.66516,12.05198 -0.20556,0.89675 -0.33743,1.795661 -0.39481,2.686661 -0.19438,-0.0339 -0.38783,-0.0707 -0.57826,-0.11318 -0.51639,-1.865641 -0.51918,-3.954251 -0.0212,-6.126751 0.85007,-3.70777 3.18432,-7.59296 6.82336,-10.67015 3.63882,-3.07701 7.85764,-4.73304 11.6551,-4.95526 0.27814,-0.0163 0.55362,-0.0251 0.82631,-0.0264 z m 6.250271,29.114501 6.50968,7.69875 -31.756721,10.34614 -6.50968,-7.69824 z"
       inkscape:connector-curvature="0" />
  </g>
</svg>
