<?xml version="1.0" encoding="UTF-8" standalone="no"?>
<svg
   xmlns:dc="http://purl.org/dc/elements/1.1/"
   xmlns:cc="http://creativecommons.org/ns#"
   xmlns:rdf="http://www.w3.org/1999/02/22-rdf-syntax-ns#"
   xmlns:svg="http://www.w3.org/2000/svg"
   xmlns="http://www.w3.org/2000/svg"
   xmlns:sodipodi="http://sodipodi.sourceforge.net/DTD/sodipodi-0.dtd"
   xmlns:inkscape="http://www.inkscape.org/namespaces/inkscape"
   sodipodi:docname="Colossus.svg"
   inkscape:version="1.0beta2 (2b71d25, 2019-12-03)"
   id="svg1434"
   version="1.1"
   viewBox="0 0 135.46666 135.46667"
   height="512"
   width="512">
  <defs
     id="defs1428" />
  <sodipodi:namedview
     inkscape:window-maximized="0"
     inkscape:window-y="0"
     inkscape:window-x="0"
     inkscape:window-height="700"
     inkscape:window-width="1366"
     units="px"
     showgrid="false"
     inkscape:document-rotation="0"
     inkscape:current-layer="layer1"
     inkscape:document-units="mm"
     inkscape:cy="314.53807"
     inkscape:cx="549.21263"
     inkscape:zoom="0.7"
     inkscape:pageshadow="2"
     inkscape:pageopacity="0.0"
     borderopacity="1.0"
     bordercolor="#666666"
     pagecolor="#ffffff"
     id="base" />
  <metadata
     id="metadata1431">
    <rdf:RDF>
      <cc:Work
         rdf:about="">
        <dc:format>image/svg+xml</dc:format>
        <dc:type
           rdf:resource="http://purl.org/dc/dcmitype/StillImage" />
        <dc:title></dc:title>
      </cc:Work>
    </rdf:RDF>
  </metadata>
  <g
     id="layer1"
     inkscape:groupmode="layer"
     inkscape:label="Camada 1">
    <path
       sodipodi:nodetypes="cccccccccccccccscsccsccscccccscsccccccsccccccccscccccccccccsccccccccsccccccccssccscccssscccccccsssccccsccccccccccccsscscccccscsccccccccccscsccccccccccccccc"
       inkscape:connector-curvature="0"
       id="path1910"
       d="m 113.5187,125.00975 c 6.92314,-4.46047 9.2727,-6.07759 9.21753,-6.34413 -0.25052,-1.21044 -9.44054,-29.387857 -9.62109,-29.499442 -0.12212,-0.07543 -1.61492,-0.408698 -3.3176,-0.740677 l -3.09577,-0.603611 0.10924,-2.37895 c 0.06,-1.308414 0.2432,-6.489061 0.40686,-11.512539 0.16372,-5.023479 0.34906,-9.216831 0.41193,-9.318561 0.0627,-0.101721 1.84459,-1.130726 3.95934,-2.286655 l 3.84507,-2.101686 0.0567,-5.479031 0.0568,-5.479027 2.97842,1.257468 c 2.37734,1.003699 3.02866,1.20271 3.22733,0.98613 0.57425,-0.625949 5.24364,-9.41137 5.08011,-9.558181 -0.0984,-0.08824 -8.71648,-7.392016 -19.15155,-16.230618 L 88.709202,9.6500564 87.496907,10.298549 c -0.666757,0.35667 -2.502569,1.362278 -4.079563,2.234687 l -2.867268,1.586195 -2.579514,-1.507599 C 76.551825,11.782652 72.714301,9.5469886 69.442701,7.6436878 L 63.494378,4.1831412 55.131561,8.2989239 C 50.532019,10.562604 42.371255,14.602015 36.996574,17.275392 l -9.77217,4.860682 -0.01765,9.424429 c -0.01009,5.183432 -0.08225,9.90426 -0.1602,10.490723 l -0.14153,1.066299 -10.219139,2.709268 c -5.620535,1.4901 -10.2743426,2.764451 -10.3418031,2.83189 -0.2534432,0.253464 0.9776459,0.06136 12.0169551,-1.875187 11.029194,-1.934765 11.324895,-1.999254 11.480755,-2.503844 0.08805,-0.284864 0.697612,-4.699139 1.354732,-9.809506 0.657146,-5.110363 1.214514,-9.312182 1.238633,-9.337375 0.153892,-0.160805 28.737218,-13.983278 29.11486,-14.079528 0.346636,-0.08835 1.977064,0.764012 6.245207,3.264895 3.176845,1.861454 5.777249,3.440117 5.778661,3.508141 0.0015,0.06801 -3.895799,2.26713 -8.660485,4.886902 -6.909569,3.7991 -8.63647,4.833309 -8.531646,5.109504 0.201826,0.531839 8.887969,15.689951 9.160384,15.98569 0.18669,0.202634 0.688858,0.09687 2.268047,-0.477583 1.115569,-0.405814 2.139458,-0.739197 2.275338,-0.740855 0.13598,-0.0016 2.961521,4.490583 6.279215,9.982757 3.317719,5.492171 6.156277,10.120546 6.307899,10.285277 0.235885,0.256339 1.285255,0.258672 7.27949,0.01614 3.881724,-0.157022 6.767938,-0.354242 6.474659,-0.442421 -0.291058,-0.08752 -2.836061,-0.3733 -5.655572,-0.635096 -2.819511,-0.261796 -5.205097,-0.545347 -5.301317,-0.630111 -0.09613,-0.08477 1.22453,-2.641791 2.935007,-5.682277 1.710451,-3.04049 2.846505,-5.223948 2.524516,-4.852138 -0.321962,0.371812 -2.075251,2.600722 -3.896177,4.953132 -1.820951,2.352413 -3.406926,4.251253 -3.52439,4.219647 C 83.297441,59.747957 72.66201,41.72133 72.773922,41.609431 c 0.03203,-0.03196 3.073182,-1.12451 6.758275,-2.427881 4.960609,-1.754514 6.771823,-2.310281 6.976222,-2.140641 0.151875,0.126016 1.68873,2.28495 3.415302,4.797624 l 3.139229,4.568499 1.096925,0.120819 c 1.175612,0.129496 16.659985,1.185393 17.383455,1.185393 0.41851,0 0.43855,0.17072 0.59034,5.02875 0.0866,2.765811 0.10495,5.080976 0.0412,5.144811 -0.0638,0.06383 -1.36997,0.184494 -2.90253,0.268159 -1.53257,0.08365 -2.8367,0.202306 -2.89808,0.263666 -0.0613,0.06135 -1.13491,6.400616 -2.38571,14.087233 -1.25076,7.686614 -2.33333,14.034728 -2.40569,14.106907 -0.0724,0.07215 -4.600872,-0.783515 -10.063346,-1.901582 l -9.931815,-2.032844 -3.687465,3.82052 c -3.432356,3.556202 -3.718142,3.801345 -4.130875,3.543612 -0.243959,-0.152378 -3.29461,-2.466997 -6.779442,-5.143765 -3.484831,-2.676746 -6.533618,-4.989033 -6.775027,-5.138378 -0.386572,-0.239114 -0.94109,-0.04743 -4.645104,1.605713 -2.313382,1.032491 -4.182418,1.897165 -4.153431,1.921511 0.02902,0.02522 1.734822,-0.219486 3.790699,-0.541853 2.822967,-0.442629 3.820544,-0.527699 4.075224,-0.347519 0.185427,0.131187 3.722984,3.218269 7.861152,6.860121 4.138168,3.641877 7.600117,6.621588 7.693235,6.621588 0.09309,0 1.354557,-1.297616 2.803164,-2.883591 1.448607,-1.585976 3.149017,-3.445526 3.778665,-4.132365 l 1.144808,-1.24875 6.433133,1.462358 c 6.420695,1.459531 6.433612,1.463592 6.696263,2.103153 0.14481,0.35244 0.326605,0.938543 0.404106,1.302436 0.134971,0.63381 0.09562,0.680483 -0.936852,1.109564 -0.592787,0.246481 -1.077802,0.537892 -1.077802,0.647887 0,0.109996 0.33642,1.129318 0.747589,2.265221 0.411171,1.135903 0.74759,2.138678 0.74759,2.228415 0,0.08981 -2.216152,1.443378 -4.924759,3.008118 -2.708634,1.56472 -4.884849,2.95236 -4.836083,3.08364 0.04869,0.13118 0.41006,2.27779 0.802789,4.77006 0.392753,2.49225 0.74981,4.49569 0.793429,4.45203 0.04364,-0.0437 -0.07795,-1.97265 -0.270069,-4.28671 -0.192239,-2.31409 -0.31939,-4.23466 -0.282733,-4.26799 0.429991,-0.39089 9.671257,-4.79074 9.792176,-4.66216 0.156919,0.16702 2.129241,3.69226 2.129241,3.80591 0,0.03 -0.913137,0.59943 -2.029186,1.26544 -1.116049,0.66598 -2.029185,1.24853 -2.029185,1.2945 0,0.0459 0.647584,-0.21015 1.439121,-0.56894 0.791511,-0.35888 1.942174,-0.875 2.556986,-1.14691 l 1.117862,-0.49435 -1.802027,-4.43626 c -0.991118,-2.439924 -1.777685,-4.460579 -1.747941,-4.490324 0.02977,-0.02977 0.675209,-0.275189 1.434404,-0.54546 l 1.380369,-0.491372 0.06207,-1.761185 c 0.03409,-0.968639 0.130172,-1.763229 0.213672,-1.765751 0.08328,-0.0026 2.630255,0.550153 5.659745,1.228188 l 5.50815,1.232804 0.30514,1.067989 c 1.17183,4.101782 5.87289,21.492001 5.87128,21.719151 -0.002,0.26955 -11.76867,7.37138 -12.55329,7.57657 -0.37418,0.0979 -46.361805,-6.18527 -47.53719,-6.49485 l -0.605074,-0.15944 3.973552,-5.2111 c 2.185425,-2.8661 3.925015,-5.25962 3.865753,-5.31888 -0.05929,-0.0593 -3.188651,1.73986 -6.954171,3.99808 -3.765522,2.2582 -6.930182,4.07496 -7.032557,4.03729 -0.102427,-0.0376 -4.139783,-5.20057 -8.972055,-11.473 C 32.149667,92.332502 32.122043,92.29345 32.524408,91.844563 32.746418,91.596821 38.963521,84.281355 46.340165,75.587872 53.716785,66.89438 59.894507,59.617046 60.068431,59.416025 60.35346,59.086569 59.842889,57.728052 54.891136,45.638867 51.869698,38.262453 49.30643,32.083025 49.194971,31.906806 c -0.303597,-0.479975 -0.268858,-0.366789 4.125932,13.439619 2.22203,6.98061 3.998984,12.795852 3.948754,12.922758 -0.05021,0.126898 -6.745938,7.72808 -14.879406,16.891493 -8.133468,9.163416 -14.922925,16.814721 -15.087665,17.002898 -0.264267,0.301857 0.860965,2.150911 9.55387,15.699546 5.41941,8.44658 9.892862,15.39933 9.941047,15.4506 0.0714,0.0759 53.06633,7.1832 56.432057,7.5681 l 0.99859,0.11428 z M 102.10271,41.151886 c -9.164949,-3.831593 -16.761609,-6.966314 -16.881519,-6.966042 -0.119835,2.15e-4 -3.906774,1.317712 -8.415318,2.927642 -4.508519,1.609929 -8.22926,2.89521 -8.268287,2.856176 -0.184672,-0.184696 -6.069115,-10.873063 -6.069115,-11.023838 0,-0.160299 23.301485,-10.560528 23.396016,-10.442432 0.0227,0.0295 0.254931,2.888085 0.514076,6.352449 0.259145,3.46436 0.503481,6.331164 0.542988,6.370674 0.0994,0.09948 0.129926,-0.0076 1.811592,-6.346804 0.822668,-3.10137 1.537057,-5.68013 1.587514,-5.730579 0.134719,-0.134819 32.582883,22.654797 32.590193,22.889427 0.008,0.206493 -2.88305,5.569492 -3.26407,6.058268 -0.11858,0.152203 -0.36531,0.21931 -0.54814,0.14915 -0.1829,-0.07017 -7.831,-3.262502 -16.99593,-7.094098 z m -2.333086,3.367466 C 97.435482,44.298 95.455744,44.036988 95.370221,43.939313 95.03587,43.557402 92.635628,40.310579 92.264873,39.73865 l -0.392526,-0.605479 0.730609,0.309124 c 7.571134,3.203362 12.114664,5.148568 12.371794,5.296671 0.4759,0.274134 -0.37855,0.238078 -5.205126,-0.219614 z"
       style="fill:#ffffff;stroke-width:0.213599" />
  </g>
</svg>
