<?xml version="1.0" encoding="UTF-8" standalone="no"?>
<svg
   xmlns:dc="http://purl.org/dc/elements/1.1/"
   xmlns:cc="http://creativecommons.org/ns#"
   xmlns:rdf="http://www.w3.org/1999/02/22-rdf-syntax-ns#"
   xmlns:svg="http://www.w3.org/2000/svg"
   xmlns="http://www.w3.org/2000/svg"
   xmlns:sodipodi="http://sodipodi.sourceforge.net/DTD/sodipodi-0.dtd"
   xmlns:inkscape="http://www.inkscape.org/namespaces/inkscape"
   sodipodi:docname="Magic Zilla.svg"
   inkscape:version="1.0beta2 (2b71d25, 2019-12-03)"
   id="svg344"
   version="1.1"
   viewBox="0 0 135.46666 135.46667"
   height="512"
   width="512">
  <defs
     id="defs338" />
  <sodipodi:namedview
     inkscape:window-maximized="0"
     inkscape:window-y="0"
     inkscape:window-x="0"
     inkscape:window-height="700"
     inkscape:window-width="1366"
     units="px"
     showgrid="false"
     inkscape:document-rotation="0"
     inkscape:current-layer="layer1"
     inkscape:document-units="mm"
     inkscape:cy="391.004"
     inkscape:cx="720.42061"
     inkscape:zoom="0.49497475"
     inkscape:pageshadow="2"
     inkscape:pageopacity="0.0"
     borderopacity="1.0"
     bordercolor="#666666"
     pagecolor="#ffffff"
     id="base" />
  <metadata
     id="metadata341">
    <rdf:RDF>
      <cc:Work
         rdf:about="">
        <dc:format>image/svg+xml</dc:format>
        <dc:type
           rdf:resource="http://purl.org/dc/dcmitype/StillImage" />
        <dc:title />
      </cc:Work>
    </rdf:RDF>
  </metadata>
  <g
     id="layer1"
     inkscape:groupmode="layer"
     inkscape:label="Camada 1">
    <path
       id="rect132"
       style="fill:#ffffff;stroke-width:105.746;paint-order:markers stroke fill"
       d="m 66.614342,10.158949 c -0.213052,-5.64e-4 -0.354966,0.02998 -0.412258,0.09357 -0.234952,0.260759 1.758081,6.0784 4.428612,12.928063 2.67048,6.849661 4.856829,12.699618 4.856829,13.000719 0,0.301109 -1.316372,-0.565718 -2.923786,-1.926441 -3.810348,-3.22548 -11.84535,-7.139523 -17.183844,-8.370657 -3.743586,-0.863293 -3.280214,-0.939959 3.951403,-0.645082 4.503821,0.183615 8.18847,0.222761 8.18847,0.08641 0,-0.136351 -0.597066,-1.830967 -1.325939,-3.767016 C 65.15,18.785911 64.163071,17.833944 61.546155,17.078166 56.690242,15.675797 42.482575,14.662815 38.706833,15.448948 l -3.255685,0.677006 1.73765,2.145504 c 2.789703,3.443717 3.42068,5.038905 1.704625,4.30807 C 36.591419,21.599159 25.471991,26.233121 17.840736,31.35309 11.01865,35.930165 -1.8897539,48.246159 1.5667213,46.879648 4.5605984,45.696043 28.69469,45.246284 34.321705,46.26924 c 2.921396,0.53112 5.39458,0.880551 5.496959,0.77718 0.102421,-0.103357 -0.03436,-1.124545 -0.304378,-2.269894 -0.344663,-1.462716 -2.111543,-2.757644 -5.939489,-4.350452 l -5.449624,-2.268246 4.57667,-1.132197 c 8.664446,-2.145371 14.139449,-2.567943 15.44895,-1.18999 6.294353,6.62342 16.63039,16.512663 17.255948,16.509042 0.431094,-0.0025 3.175476,-1.097748 6.096905,-2.43337 9.995931,-4.56996 21.555888,-2.509174 29.162444,5.200288 l 2.604,2.640873 -1.60335,-2.948004 c -0.88172,-1.621133 -2.228584,-3.499947 -2.994235,-4.175422 -0.93015,-0.820647 -1.02319,-1.227967 -0.28016,-1.227967 1.821655,0 9.318995,9.179545 11.122715,13.618832 0.92101,2.266701 2.10693,3.94518 2.63537,3.730135 0.52843,-0.215041 1.6809,0.306027 2.56051,1.157515 0.99959,0.967563 3.82138,1.692465 7.52467,1.930293 5.50738,0.353692 6.13235,0.63331 8.85832,3.972321 l 2.9326,3.591984 -0.40511,-7.940235 c -0.58864,-11.554633 -4.20063,-18.095876 -9.99216,-18.095876 -0.74192,0 -3.9012,-2.021219 -7.0216,-4.492459 l -5.67309,-4.494107 -10.42094,0.318688 c -8.411939,0.256318 -10.973604,-8.45e-4 -13.296287,-1.328142 -1.839761,-1.051298 -2.877002,-1.245147 -2.877002,-0.539406 0,2.862917 -1.634668,-1.227536 -2.071748,-5.184873 -0.26854,-2.431705 -0.768018,-5.907574 -1.110179,-7.725577 -0.610458,-3.243657 -0.582102,-3.283212 1.500972,-2.057437 1.167521,0.687018 4.912278,4.233796 8.320569,7.881342 5.796625,6.203478 6.52576,6.675682 11.287285,7.326527 2.79968,0.382732 5.0902,0.41117 5.0902,0.0633 0,-0.347864 -1.17843,-3.219774 -2.61775,-6.384223 -3.81405,-8.385447 -8.272313,-12.176401 -23.055634,-19.596301 -4.118203,-2.06697 -12.414593,-4.789395 -14.833588,-4.983425 -0.08639,-0.0069 -0.165107,-0.01082 -0.236126,-0.01101 z M 88.05562,34.208626 c -0.300447,0.0418 -0.30196,0.637048 0.10733,1.820759 0.27611,0.798533 1.358928,1.961608 2.405296,2.583082 1.886771,1.120654 1.885291,1.105735 -0.108979,-1.887911 -1.136643,-1.70622 -2.017344,-2.569665 -2.403647,-2.51593 z M 47.809537,51.848212 c -0.117089,-0.0034 -0.230112,-0.0023 -0.339604,0.0033 -2.627831,0.132124 -3.101625,2.871946 -2.811501,10.398922 0.404829,10.502365 3.377021,15.79662 11.56029,20.584836 10.182864,5.958238 14.119868,11.568395 15.14292,21.57833 0.740021,7.24093 5.097704,16.78306 9.63275,21.09121 2.014783,1.91401 4.090352,3.47299 4.611346,3.4698 0.520995,-0.005 1.851609,-3.31396 2.956811,-7.3535 l 2.009,-7.34414 -3.506671,-3.51713 c -5.521122,-5.53583 -7.134995,-10.32526 -8.065728,-23.933539 -0.444576,-6.500028 -0.950933,-12.827164 -1.125591,-14.06026 -0.174497,-1.233097 0.08347,-0.80402 0.574079,0.952212 0.999831,3.578894 1.978928,4.077336 2.745453,1.396944 0.775013,-2.71006 8.45282,-10.899421 12.252157,-13.068419 3.829287,-2.186075 3.653799,-3.053976 -1.16357,-5.781523 -7.239891,-4.099172 -17.210253,-1.750376 -25.067936,5.906467 -1.664667,1.622136 -3.223599,2.949655 -3.46484,2.949655 -0.241275,0 -2.324188,-2.542247 -4.628962,-5.649424 -3.300355,-4.449426 -5.05406,-5.928794 -8.252867,-6.964355 -1.230016,-0.39821 -2.237912,-0.635731 -3.057536,-0.659392 z m -30.486188,0.268049 -6.772262,5.684099 c -3.724485,3.126514 -6.7711613,5.959049 -6.7711613,6.292304 -3e-7,0.333247 1.0954608,1.324214 2.4344694,2.202745 1.33898,0.878525 6.6173439,4.945182 11.7298179,9.036656 5.112449,4.09147 10.590445,8.607734 12.1729,10.037852 4.046431,3.656967 3.744961,1.047787 -0.629673,-5.459531 -3.42379,-5.092885 -3.473586,-5.281619 -2.138897,-8.146089 l 1.366122,-2.933691 2.804346,4.996632 c 3.064535,5.462812 4.130836,6.206787 4.130836,2.880305 0,-1.193065 -1.435365,-3.80049 -3.188532,-5.79308 -2.403794,-2.73203 -3.041168,-4.130149 -2.595191,-5.689605 0.869208,-3.039404 1.792346,-2.571488 4.583827,2.32549 2.308452,4.049608 2.560822,4.23019 3.208899,2.28586 0.557424,-1.672386 0.04668,-2.858042 -2.466945,-5.714923 -2.912834,-3.310647 -3.085043,-3.817852 -2.099269,-6.219099 0.590432,-1.437891 0.826466,-2.888691 0.523993,-3.224311 -0.302437,-0.335614 -4.092872,-1.050365 -8.422396,-1.586836 z m 86.455871,14.506093 c -0.0178,-5.63e-4 -0.0349,0.0011 -0.0512,0.005 -0.97755,0.234994 0.86175,8.745799 2.2721,9.890342 0.88508,0.717383 1.25313,1.749357 0.8713,2.435019 -0.47618,0.855092 -0.0106,1.052281 1.65454,0.699023 2.42661,-0.514826 2.40407,0.1458 -0.11394,3.399893 -0.73173,0.945661 -1.16855,1.685602 -0.97147,1.642976 1.26861,-0.274467 3.33493,-1.434312 5.36486,-3.01075 2.84655,-2.210218 3.51024,-2.292391 2.83902,-0.351161 -0.59902,1.732496 0.0398,1.8541 2.39319,0.456291 1.18034,-0.701097 1.71343,-0.701097 1.71343,0 0,1.611063 2.27157,1.186279 4.53539,-0.848185 l 2.07505,-1.864795 -3.52759,-1.047983 c -1.93971,-0.57577 -5.62849,-1.543015 -8.19893,-2.151007 -4.7646,-1.126992 -9.93327,-4.949289 -9.93327,-7.345789 0,-0.730645 -0.33376,-1.557875 -0.74031,-1.836724 -0.0684,-0.04712 -0.12871,-0.07014 -0.18218,-0.0721 z m -61.480952,2.379429 c -0.01902,0.0014 -0.03867,0.0057 -0.0589,0.01265 -0.712096,0.244282 -2.167079,3.826361 -4.250276,10.537075 l -3.258986,10.502401 2.990936,3.498414 c 4.307616,5.04053 9.756904,13.505217 12.532316,19.465857 1.321002,2.83694 2.474718,5.15845 2.562716,5.15845 0.088,0 0.18451,-0.77382 0.217964,-1.71948 0.03192,-0.94565 0.368695,-7.94235 0.748559,-15.54747 L 54.472268,87.083343 51.310152,85.012694 C 48.095251,82.907529 42.755869,74.033245 42.739146,70.770249 42.733346,69.562567 42.583652,68.978593 42.298268,69.001778 Z M 90.283136,79.87406 c -1.153572,-0.02494 -4.151218,8.710686 -3.621157,10.552487 0.861106,2.992105 2.383622,6.134886 2.970569,6.134886 0.311775,0 2.538099,2.108642 4.947098,4.685657 2.58446,2.76466 5.871394,5.18174 8.017834,5.89545 3.65781,1.2163 7.4157,1.59902 7.4157,0.75572 0,-0.24936 -1.56442,-0.92115 -3.47695,-1.49272 -2.08565,-0.62326 -5.13745,-2.82951 -7.623745,-5.51126 -3.93264,-4.241896 -4.193359,-4.857762 -5.081398,-12.016592 -0.858404,-6.91979 -1.663853,-8.962847 -3.547951,-9.003628 z m -7.185073,15.387851 c -1.028865,0.05308 -0.609894,2.459127 1.248884,6.720529 1.933145,4.4319 5.742303,8.97274 6.435411,7.67163 0.237558,-0.44591 1.422678,-3.85886 1.786713,-5.73959 0.57132,-2.95165 0.813945,-3.16669 -0.316775,-2.12519 -1.053966,0.97079 -4.673119,1.99374 -2.655411,-1.08716 -3.610327,1.90337 -1.929414,-0.896256 -1.698879,-1.646952 0.281828,-0.918215 0.774258,-1.001597 -0.889747,-0.190411 -0.798722,0.547916 -1.594868,-0.365142 -0.08748,-1.941058 -2.451784,0.518731 -2.847964,0.899494 -0.08985,-1.422865 -2.991164,1.169996 -3.360947,-0.212978 -3.628287,-0.236732 -0.0362,-0.0032 -0.07139,-0.0039 -0.10458,-0.0023 z"
       inkscape:connector-curvature="0"
       sodipodi:nodetypes="sccscccsccccccscccccccccsccccscccscccsccccscccccscscsccccccccscccccccccccccscccccscccccccscccccccccccccccccccsccccsccccccccsccccccccsccscccccccccccccccc" />
  </g>
</svg>
