<?xml version="1.0" encoding="UTF-8" standalone="no"?>
<svg
   xmlns:dc="http://purl.org/dc/elements/1.1/"
   xmlns:cc="http://creativecommons.org/ns#"
   xmlns:rdf="http://www.w3.org/1999/02/22-rdf-syntax-ns#"
   xmlns:svg="http://www.w3.org/2000/svg"
   xmlns="http://www.w3.org/2000/svg"
   xmlns:sodipodi="http://sodipodi.sourceforge.net/DTD/sodipodi-0.dtd"
   xmlns:inkscape="http://www.inkscape.org/namespaces/inkscape"
   sodipodi:docname="YordleBats.svg"
   inkscape:version="1.0beta2 (2b71d25, 2019-12-03)"
   id="svg8"
   version="1.1"
   viewBox="0 0 135.46666 135.46667"
   height="512"
   width="512">
  <defs
     id="defs2" />
  <sodipodi:namedview
     units="px"
     inkscape:window-maximized="0"
     inkscape:window-y="0"
     inkscape:window-x="0"
     inkscape:window-height="700"
     inkscape:window-width="1366"
     showgrid="false"
     inkscape:document-rotation="0"
     inkscape:current-layer="layer1"
     inkscape:document-units="mm"
     inkscape:cy="128.3445"
     inkscape:cx="860.27805"
     inkscape:zoom="0.49497475"
     inkscape:pageshadow="2"
     inkscape:pageopacity="0.0"
     borderopacity="1.0"
     bordercolor="#666666"
     pagecolor="#ffffff"
     id="base" />
  <metadata
     id="metadata5">
    <rdf:RDF>
      <cc:Work
         rdf:about="">
        <dc:format>image/svg+xml</dc:format>
        <dc:type
           rdf:resource="http://purl.org/dc/dcmitype/StillImage" />
        <dc:title></dc:title>
      </cc:Work>
    </rdf:RDF>
  </metadata>
  <g
     id="layer1"
     inkscape:groupmode="layer"
     inkscape:label="Camada 1">
    <path
       style="fill:#ffffff;fill-opacity:1;stroke-width:0.144951"
       d="m 65.97042,132.32032 c -5.639983,-1.46145 -12.44846,-4.885 -18.052432,-9.07744 -3.154946,-2.36026 -4.719651,-3.71906 -7.65081,-6.64396 -4.792814,-4.78259 -9.141419,-10.3755 -12.687751,-16.31822 -0.45444,-0.761507 -0.873432,-1.332517 -0.931102,-1.268887 -0.05769,0.0636 -0.415611,1.056237 -0.795424,2.205817 -0.802255,2.42814 -0.63909,2.43932 -1.943465,-0.13329 -1.986343,-3.917677 -3.241523,-8.369617 -3.780255,-13.408007 -0.215877,-2.01894 -0.219353,-7.19047 -0.006,-9.276904 0.822406,-8.051518 3.033332,-15.266258 7.275808,-23.742578 l 1.291141,-2.579671 -0.573477,-1.5585 c -1.195148,-3.247934 -2.059695,-6.755934 -2.5776,-10.458908 -0.355613,-2.542597 -0.352223,-8.50553 0.006,-10.94383 1.183241,-8.048993 4.122283,-15.079219 8.987543,-21.4983469 1.162559,-1.533855 3.267494,-3.963047 3.498369,-4.037272 0.0797,-0.02559 0.52138,0.588988 0.981453,1.365819 1.466315,2.475829 3.054612,4.397697 5.462037,6.6091369 2.041761,1.875549 3.749318,3.096763 9.893554,7.075689 1.998636,1.294283 3.470267,2.57623 4.608447,4.014434 1.045688,1.321333 2.192496,3.321149 2.557627,4.460023 l 0.238399,0.743567 0.606203,-0.268155 c 1.056927,-0.467528 3.169216,-0.75811 5.584755,-0.768271 2.47195,-0.01044 4.252208,0.208764 5.576511,0.68653 l 0.865592,0.312282 0.319952,-0.916507 c 0.725299,-2.077688 2.604795,-4.715551 4.563617,-6.405029 0.608616,-0.524941 2.616762,-1.929769 4.462539,-3.121835 4.643603,-2.999023 6.692007,-4.561092 9.011921,-6.872292 2.09212,-2.0842709 3.319223,-3.6342869 4.508819,-5.6953859 0.40261,-0.697573 0.77815,-1.26832 0.83453,-1.26832 0.30822,0 3.312359,3.658119 4.821019,5.870535 6.6062,9.6877859 9.19606,20.5267039 7.56768,31.6718939 -0.37082,2.538009 -1.0505,5.289705 -2.03466,8.237213 l -0.93541,2.801541 1.58756,3.213951 c 4.03686,8.17241 6.33344,15.917655 6.98207,23.546987 0.24627,2.896683 0.10579,8.215253 -0.28419,10.759613 -0.53686,3.50272 -1.45085,6.79579 -2.7002,9.72873 -0.68434,1.606557 -1.97539,3.933357 -2.1037,3.791407 -0.0561,-0.062 -0.40907,-1.04262 -0.78454,-2.17919 -0.37549,-1.136567 -0.7371,-2.032877 -0.80358,-1.991797 -0.0664,0.0411 -0.34882,0.4818 -0.62744,0.97936 -0.90858,1.622547 -3.91788,6.071077 -5.71088,8.442127 -5.222789,6.90663 -11.216611,12.60499 -17.808934,16.93104 -4.002219,2.62637 -7.250025,4.2884 -11.437742,5.85319 -1.558884,0.5825 -5.320101,1.64846 -5.768061,1.63473 -0.09622,-0.003 -1.039191,-0.22931 -2.095485,-0.50302 z m -6.971083,-23.12644 c -0.961585,-0.64213 -1.486389,-1.1966 -1.900108,-2.00756 l -0.268891,-0.52707 3.283562,0.003 c 2.647166,0.003 3.515839,-0.0483 4.482046,-0.26088 2.669244,-0.58742 5.382565,-1.77543 7.165434,-3.13737 0.985364,-0.75271 1.997265,-1.74609 1.774882,-1.74238 -0.07541,0.002 -0.919888,0.0683 -1.876568,0.14898 -0.95668,0.0806 -3.402736,0.14781 -5.43568,0.14917 -5.390379,0.003 -7.725025,-0.36242 -10.074129,-1.57949 -1.292827,-0.669827 -3.152087,-2.495137 -3.790972,-3.721777 -0.42626,-0.8184 -0.457145,-0.98515 -0.523452,-2.82655 -0.114243,-3.17278 -0.651733,-4.50602 -3.822164,-9.4809 -0.946057,-1.48449 -3.004006,-4.50825 -4.573214,-6.719467 -6.016904,-8.478531 -6.557262,-9.763937 -6.564812,-15.616469 -0.0026,-1.959984 0.07259,-3.560163 0.210819,-4.493499 0.118104,-0.79723 0.215946,-1.496772 0.217427,-1.554545 0.0017,-0.05778 -0.713846,-0.629451 -1.589598,-1.2704 l -1.592278,-1.165367 -0.238622,0.316348 c -0.393098,0.521141 -1.555743,3.243484 -2.24717,5.261748 -1.061148,3.097496 -1.410735,5.063474 -1.418807,7.979011 -0.0068,2.413527 0.0026,2.492486 0.466741,3.841219 0.536549,1.560169 1.480791,3.286318 2.497665,4.565955 0.702624,0.884192 2.781819,2.955246 3.834843,3.819836 l 0.579811,0.47605 -1.304563,-0.0784 c -0.71751,-0.0432 -1.695932,-0.18398 -2.174272,-0.31301 -1.052434,-0.28391 -2.700712,-1.085737 -3.442601,-1.674716 l -0.543568,-0.431533 v 1.014075 c 0,0.557735 0.09739,1.751224 0.216418,2.652194 0.494141,3.7403 1.734855,6.95688 3.81868,9.89998 1.115077,1.57489 3.85614,4.28323 5.5317,5.46564 2.532864,1.78741 5.818352,3.39071 8.855707,4.321527 0.829579,0.25424 1.606162,0.49343 1.725747,0.53155 0.335925,0.10707 -0.725111,0.60038 -1.983646,0.92226 -0.60212,0.154 -1.817914,0.32392 -2.701773,0.3776 l -1.607018,0.0976 1.525731,1.46215 c 3.992212,3.82586 8.406669,5.82896 12.936748,5.87016 l 1.429798,0.013 -0.879853,-0.58755 z M 69.702849,97.848353 c 0.757366,-0.19545 1.931473,-0.612 2.609126,-0.92566 l 1.232085,-0.57029 -2.899024,-0.0954 c -3.241146,-0.10662 -6.589088,-0.50487 -8.659501,-1.03007 -3.311346,-0.83999 -4.257882,-1.74334 -6.772513,-6.46351 -0.658317,-1.23571 -1.477521,-2.63813 -1.820456,-3.11647 -0.640366,-0.89321 -2.349293,-2.63609 -2.202975,-2.24674 0.04494,0.11959 0.579127,1.45676 1.187084,2.9715 0.607949,1.51475 1.499974,3.79774 1.982269,5.07331 0.584665,1.54632 1.044258,2.52421 1.379079,2.93431 1.378882,1.6889 4.7545,3.30269 7.949334,3.80036 1.499075,0.23351 4.458225,0.0705 6.015492,-0.33138 z m 9.486495,-1.13624 c 2.353315,-0.78758 3.704608,-2.36691 5.372977,-6.27972 1.321665,-3.09969 2.450669,-5.01228 4.139342,-7.01227 0.72328,-0.85662 0.832661,-1.04667 0.5542,-0.96291 -1.37289,0.41293 -3.103037,1.55476 -4.000985,2.64048 -1.302406,1.57478 -2.043516,2.86724 -3.454781,6.02494 -1.407328,3.14889 -2.727976,4.95361 -4.161223,5.68649 l -0.760927,0.38908 0.72476,-0.0988 c 0.398611,-0.0543 1.112602,-0.22863 1.586637,-0.38727 z m 16.678943,-5.412 c 4.758003,-4.7057 7.617603,-11.36186 8.157853,-18.988638 l 0.10268,-1.44952 0.59937,1.232093 c 0.71373,1.467154 1.42625,3.539296 1.66781,4.850322 0.096,0.521252 0.21975,0.947734 0.2749,0.947734 0.19771,0 0.29532,-3.588833 0.14908,-5.482136 -0.47574,-6.159422 -2.40338,-11.179985 -5.53479,-14.415438 l -0.87393,-0.902957 0.0868,0.854249 c 0.0478,0.469832 0.15705,1.513482 0.24288,2.319221 0.20708,1.944156 0.20268,7.676685 -0.008,9.94463 -0.744859,8.032241 -2.890729,15.13627 -6.501988,21.5253 -0.360501,0.63779 -0.759711,1.32141 -0.887145,1.51916 -0.40742,0.63224 1.049437,-0.49558 2.52409,-1.95402 z m -35.82821,-3.29304 c 0.05033,-1.53722 0.131313,-3.08846 0.179883,-3.44721 l 0.08831,-0.65228 -1.354426,-0.0171 c -0.964478,-0.0122 -1.594401,-0.10295 -2.187908,-0.31516 l -0.833474,-0.29802 v 0.39658 c 0,0.74259 0.593105,2.69479 1.184062,3.89733 0.401119,0.81625 0.912647,1.54551 1.601189,2.2828 0.556477,0.59587 1.061062,1.05295 1.121291,1.01572 0.06026,-0.0372 0.150718,-1.32539 0.201077,-2.8626 z m 17.388183,1.91555 c 1.02588,-1.10804 1.932064,-2.70208 2.389423,-4.20315 0.269498,-0.8845 0.554148,-2.46425 0.443988,-2.4641 -0.02739,4e-5 -0.408601,0.13703 -0.847076,0.30442 -0.514267,0.19631 -1.289643,0.33189 -2.184544,0.38195 l -1.387323,0.0776 0.113191,0.66886 c 0.06223,0.36788 0.158721,1.92452 0.214379,3.4592 0.05564,1.53468 0.149999,2.79032 0.209655,2.79032 0.05966,0 0.531395,-0.4568 1.048307,-1.01512 z m -17.727061,-8.78037 c 0,-0.046 -0.538132,-0.72914 -1.19585,-1.51798 C 56.826375,77.61057 55.871142,76.029549 55.262234,74.256559 54.415329,71.7906 53.880493,70.929828 52.702089,70.136244 l -0.70752,-0.476473 0.878286,-0.468128 c 2.338489,-1.246397 3.652083,-3.385564 3.692042,-6.012436 0.0184,-1.213115 -0.01515,-1.376157 -0.477655,-2.318182 -0.877798,-1.78786 -3.421106,-3.983746 -4.654663,-4.018817 -0.63071,-0.01789 -1.255223,0.636796 -1.539213,1.613678 -0.316862,1.08997 -0.07713,2.415154 0.703291,3.888212 l 0.574119,1.08361 -0.608693,-0.341515 C 48.837329,62.118496 46.875296,59.754517 45.486399,56.970687 45.002486,56.000773 44.516254,55.1148 44.40588,55.001858 c -0.110375,-0.112942 -0.411546,-0.205349 -0.669274,-0.205349 -0.92041,0 -2.520367,2.243592 -3.09101,4.334463 -0.129027,0.472793 -0.273513,1.611221 -0.321056,2.529834 -0.109561,2.116489 0.169516,3.641646 0.978379,5.347012 0.688577,1.451737 2.039014,2.879584 3.371303,3.564548 l 0.845202,0.434546 -0.08106,0.613068 c -0.132125,0.999703 0.160785,2.762507 0.623254,3.750765 0.964898,2.061954 3.131594,3.240333 5.966674,3.245024 0.620703,8.56e-4 0.682062,0.03706 0.98753,0.580594 0.446976,0.7953 1.008221,1.43933 1.533393,1.75959 0.381704,0.23277 0.757913,0.26902 2.796499,0.26949 1.295498,2.9e-4 2.355456,-0.0371 2.355456,-0.0832 z m 7.569667,-3.213939 0.829433,-0.301334 0.765036,0.296352 c 0.499389,0.19345 1.251935,0.321526 2.167235,0.368838 1.328686,0.06865 1.450591,0.04982 2.325119,-0.359405 1.800263,-0.842454 3.642051,-3.188579 4.726748,-6.021073 0.44528,-1.162774 0.514318,-1.512635 0.522964,-2.650019 0.0092,-1.203237 -0.02885,-1.387005 -0.464721,-2.247341 -0.261075,-0.515319 -0.970196,-1.523737 -1.575825,-2.240921 -0.605621,-0.717193 -1.281845,-1.566383 -1.502705,-1.887097 -0.540717,-0.785169 -1.643578,-1.784116 -2.248942,-2.037059 -0.77969,-0.325773 -1.188359,-0.251454 -2.475571,0.450211 -0.662486,0.361117 -1.471837,0.750892 -1.79856,0.866162 l -0.594038,0.209595 -1.681098,-0.866171 c -0.997169,-0.513779 -1.863659,-0.865617 -2.129836,-0.864812 -0.719813,0.0026 -1.889066,0.774306 -2.656139,1.753984 -0.380402,0.48583 -1.233692,1.545274 -1.896221,2.354309 -0.662519,0.809034 -1.410015,1.894963 -1.661092,2.413168 -0.392345,0.809754 -0.455202,1.094977 -0.447232,2.029315 0.02705,3.175293 3.034479,7.915865 5.656101,8.915765 0.806407,0.307557 3.064526,0.20802 4.139344,-0.182467 z m -3.293603,-1.633401 c -0.695639,-0.147012 -1.047349,-0.394562 -1.504417,-1.058879 -0.61858,-0.899079 -0.939996,-2.125702 -0.937248,-3.57684 0.0026,-1.523711 0.38607,-2.722412 1.679831,-5.255053 l 0.906782,-1.775097 0.03861,0.652282 c 0.117796,1.990281 0.695039,4.275612 1.639581,6.491092 0.986708,2.31435 1.042623,3.30456 0.229736,4.068235 -0.381191,0.358113 -1.420073,0.587995 -2.052872,0.45426 z m 7.247576,8.56e-4 c -0.80983,-0.120852 -1.156969,-0.34434 -1.430619,-0.92101 -0.428726,-0.90347 -0.342782,-1.313996 0.982565,-4.693098 0.623177,-1.588853 1.045902,-3.297009 1.210881,-4.893036 l 0.119868,-1.159606 0.846759,1.666939 c 0.465714,0.916815 1.001689,2.078133 1.191048,2.580707 0.745852,1.979478 0.708607,4.137408 -0.09985,5.784993 -0.6514,1.327522 -1.516537,1.828725 -2.820656,1.634111 z m 22.173389,-5.572582 c 2.570092,-5.717959 3.322784,-8.132138 3.323598,-10.660129 4.36e-4,-1.519217 -0.170578,-2.202084 -0.803771,-3.208523 -0.861996,-1.3701 -2.328919,-2.026978 -4.689913,-2.10009 -1.563439,-0.04845 -1.580901,-0.04546 -0.897444,0.152601 2.630596,0.762236 4.158843,2.526453 4.158843,4.800955 0,1.501575 -0.293278,2.814499 -2.394412,10.719082 -0.685007,2.577001 -1.036358,5.172688 -0.598165,4.419063 0.116503,-0.200376 0.972079,-2.055706 1.901264,-4.122959 z m -6.064661,-2.519511 c 1.172506,-0.405245 2.343814,-1.170991 3.472381,-2.270086 0.857793,-0.835391 1.083173,-1.153759 1.275604,-1.801966 0.128548,-0.433014 0.233358,-0.922225 0.232913,-1.087136 -0.0017,-0.657058 -0.3397,-1.452446 -0.849113,-1.998564 -0.429445,-0.460381 -0.643927,-0.577963 -1.076702,-0.59023 -0.445794,-0.01267 -0.648044,0.08824 -1.155026,0.576071 -1.243504,1.196515 -2.66208,2.103161 -4.065409,2.598278 l -0.572424,0.201968 1.024758,-1.078807 c 0.867063,-0.912792 1.070666,-1.227443 1.323096,-2.044695 0.368316,-1.192468 0.372442,-1.845229 0.01661,-2.628917 -0.289349,-0.637302 -0.887882,-1.060515 -1.499853,-1.060515 -0.63166,0 -2.118451,0.875359 -3.056222,1.799382 -0.590144,0.581489 -1.087008,1.248999 -1.394239,1.873067 -0.446231,0.906423 -0.47204,1.039636 -0.39606,2.044232 0.159398,2.107606 1.731714,4.625807 3.366664,5.392007 0.895123,0.419489 2.268937,0.450588 3.352992,0.07593 z M 60.933284,58.106898 c 2.270246,-1.313543 2.554742,-1.426485 3.62379,-1.43864 0.558061,-0.006 1.190988,0.03784 1.406506,0.09824 0.364713,0.102173 0.39981,0.07208 0.506768,-0.434855 0.185336,-0.878363 0.09989,-2.927905 -0.167735,-4.023464 -0.382321,-1.565031 -1.504776,-3.736256 -2.678943,-5.182018 l -1.030066,-1.26832 0.981735,0.368659 c 1.308373,0.491317 2.86088,1.264878 3.742299,1.864661 l 0.718263,0.488749 0.947195,-0.889945 c 0.520953,-0.489468 1.47854,-1.363166 2.127962,-1.94154 2.770014,-2.466977 3.69384,-5.919558 2.076747,-7.761329 -1.001253,-1.140355 -2.855855,-1.738048 -5.441801,-1.753756 -2.05556,-0.0125 -3.046729,0.211144 -4.846863,1.093616 -1.684032,0.825547 -2.937149,2.099516 -3.840867,3.90477 -0.3639,0.726934 -0.661638,1.412909 -0.661638,1.524387 0,0.25659 0.01909,0.258961 -0.787104,-0.09766 -2.767172,-1.224047 -6.782111,-1.314921 -8.933879,-0.202199 -0.363651,0.188049 -0.192705,-0.06275 0.809694,-1.18776 3.478776,-3.904428 4.52853,-6.482053 3.709531,-9.108565 -0.398568,-1.27819 -0.806124,-2.145733 -1.447526,-3.081218 -0.578262,-0.843412 -1.84457,-2.171867 -1.959361,-2.055517 -0.03441,0.03493 0.104698,0.552641 0.309166,1.150566 0.451538,1.320494 0.610422,3.833259 0.332398,5.257125 -0.291515,1.493006 -1.20679,3.339896 -2.15883,4.35624 l -0.383074,0.408942 -0.0725,-1.633426 -0.0725,-1.633417 -0.787848,1.201302 c -0.433313,0.660722 -1.189566,1.613036 -1.680558,2.11626 -0.490992,0.503233 -1.033481,1.214434 -1.205531,1.580465 -0.365834,0.778278 -0.69736,2.529363 -0.55105,2.91064 0.0964,0.251214 0.117454,0.249536 0.423795,-0.03381 0.354903,-0.328298 1.534805,-0.972815 1.621742,-0.88587 0.03013,0.03013 -0.111667,0.608925 -0.315107,1.286227 -0.434992,1.448237 -0.533296,3.620788 -0.205786,4.548038 0.465688,1.318465 1.699776,2.167185 4.329935,2.977829 2.005612,0.618152 3.100186,1.463473 5.83138,4.503456 2.689909,2.99405 3.272845,3.467057 4.280098,3.472972 0.402506,0.0026 0.845775,-0.15047 1.449512,-0.499791 z m 19.73251,-1.209417 c 1.719618,-0.594338 3.310355,-1.889948 4.940802,-4.024124 1.005772,-1.316505 2.399959,-2.685569 3.447274,-3.385145 1.436834,-0.959778 1.826311,-1.458919 2.103497,-2.695781 0.204587,-0.912911 -0.02037,-1.984648 -0.61068,-2.909578 l -0.45099,-0.706621 -0.166272,0.79723 c -0.298988,1.433556 -0.519557,1.71069 -3.955189,4.969436 -0.737112,0.699165 -1.950809,2.003283 -2.697098,2.898048 -1.68346,2.018392 -2.624578,2.903894 -3.363282,3.164533 -0.385437,0.135995 -1.241938,0.201728 -2.628533,0.201728 H 75.22853 l 0.300469,0.319823 c 1.309477,1.393803 3.431344,1.959901 5.136795,1.370451 z M 41.02796,49.238539 c -0.79753,-2.458682 -1.050876,-3.70555 -1.144926,-5.63496 -0.134745,-2.764236 0.299382,-4.280483 2.23897,-7.819872 1.429284,-2.608177 1.743672,-3.260013 2.159591,-4.477537 1.085775,-3.178358 1.027874,-6.725983 -0.147628,-9.045725 -0.201462,-0.397567 -0.889594,-1.2877 -1.529189,-1.978066 -1.252201,-1.351627 -2.503563,-3.305544 -3.217598,-5.024101 -0.245051,-0.589784 -0.494167,-1.124783 -0.553583,-1.188881 -0.05941,-0.06412 -0.544655,0.834407 -1.078302,1.996675 -3.145675,6.851165 -4.469217,12.26114 -4.469251,18.268123 -1.7e-5,3.822113 0.424326,6.593728 1.508098,9.850137 1.009376,3.032879 2.866016,6.483252 4.405657,8.187453 l 0.548944,0.607615 0.941066,-0.941075 0.941074,-0.941066 z m 59.11273,-0.136457 c 1.62641,-2.432257 2.54099,-4.63453 3.21338,-7.737747 0.2946,-1.359639 0.32981,-1.916269 0.33006,-5.218253 2.9e-4,-3.17983 -0.0453,-3.958947 -0.32578,-5.576408 -0.80763,-4.657146 -2.33743,-9.399353 -4.478799,-13.883823 -0.44745,-0.937026 -0.8339,-1.683306 -0.8588,-1.658414 -0.0249,0.02491 0.0499,0.758941 0.16624,1.63121 0.9625,7.216623 -0.1971,16.35026 -3.013564,23.736357 -0.355305,0.931752 -0.599397,1.694092 -0.542464,1.694092 0.275517,0 2.028733,-1.277257 2.768088,-2.016603 0.8148,-0.814805 2.18945,-2.756763 2.39961,-3.389913 0.0949,-0.285797 0.11782,-0.266177 0.220259,0.188263 0.23624,1.048196 0.30543,4.147663 0.13266,5.943013 -0.188059,1.954302 -0.720299,5.050141 -1.175379,6.836862 -0.15568,0.61121 -0.28306,1.157329 -0.28306,1.213603 0,0.255075 0.53028,-0.390479 1.447549,-1.762239 z M 85.200778,34.412725 c 0.669572,-0.341592 1.658421,-1.430217 2.112142,-2.325281 0.18186,-0.358755 0.803428,-1.826389 1.381253,-3.261408 1.168509,-2.901943 2.322071,-5.279304 3.956337,-8.153521 0.600621,-1.056328 1.068029,-1.920601 1.038677,-1.920601 -0.02936,0 -0.725548,0.628921 -1.547106,1.397612 -2.057375,1.924984 -4.087298,3.571619 -6.059714,4.915541 -2.290851,1.560888 -3.715034,3.00059 -4.41776,4.465904 -1.108408,2.311243 -0.76388,3.988839 1.011396,4.924743 0.615653,0.324566 1.845358,0.303628 2.524775,-0.04297 z"
       id="path154"
       inkscape:connector-curvature="0" />
  </g>
</svg>
