<?xml version="1.0" encoding="UTF-8" standalone="no"?>
<svg
   xmlns:dc="http://purl.org/dc/elements/1.1/"
   xmlns:cc="http://creativecommons.org/ns#"
   xmlns:rdf="http://www.w3.org/1999/02/22-rdf-syntax-ns#"
   xmlns:svg="http://www.w3.org/2000/svg"
   xmlns="http://www.w3.org/2000/svg"
   xmlns:sodipodi="http://sodipodi.sourceforge.net/DTD/sodipodi-0.dtd"
   xmlns:inkscape="http://www.inkscape.org/namespaces/inkscape"
   inkscape:version="1.0beta2 (2b71d25, 2019-12-03)"
   height="512"
   width="512"
   sodipodi:docname="R2D2.svg"
   id="svg330"
   version="1.1"
   viewBox="0 0 512 512">
  <metadata
     id="metadata336">
    <rdf:RDF>
      <cc:Work
         rdf:about="">
        <dc:format>image/svg+xml</dc:format>
        <dc:type
           rdf:resource="http://purl.org/dc/dcmitype/StillImage" />
        <dc:title></dc:title>
      </cc:Work>
    </rdf:RDF>
  </metadata>
  <defs
     id="defs334" />
  <sodipodi:namedview
     inkscape:current-layer="svg330"
     inkscape:window-maximized="1"
     inkscape:window-y="0"
     inkscape:window-x="0"
     inkscape:cy="208.34197"
     inkscape:cx="68.101339"
     inkscape:zoom="0.73334707"
     showgrid="false"
     id="namedview332"
     inkscape:window-height="700"
     inkscape:window-width="1366"
     inkscape:pageshadow="2"
     inkscape:pageopacity="0"
     guidetolerance="10"
     gridtolerance="10"
     objecttolerance="10"
     borderopacity="1"
     inkscape:document-rotation="0"
     bordercolor="#666666"
     pagecolor="#ffffff" />
  <path
     style="stroke-width:8.05813;fill:#ffffff"
     inkscape:connector-curvature="0"
     id="path328"
     d="m 257.41168,9.8685396 c -35.19154,0 -67.50799,12.3459164 -92.75373,32.8767934 -1.29799,0.624331 -2.31051,1.614105 -3.10552,2.782723 C 130.8876,71.958059 111.38872,110.70597 111.38872,153.94487 H 87.051556 c -22.365849,0 -40.561933,17.95351 -40.561933,40.0212 v 252.82146 l -32.449547,32.01696 c -4.6565103,4.59443 -6.0323208,11.44355 -3.517481,17.44673 2.514841,6.00319 8.409757,9.88024 14.988903,9.88024 h 85.877222 c 8.94796,0 16.22477,-7.1798 16.22477,-16.00848 v -32.01697 -16.00848 -49.49497 c 2.54729,0.89648 5.25683,1.46953 8.11239,1.46953 h 3.10552 l 11.72494,23.16852 c 2.75821,5.4589 8.3157,8.84844 14.51356,8.84844 h 59.89223 V 443.442 c -4.26711,1.39274 -8.14635,3.80288 -11.09116,7.30074 l -24.60651,29.14043 c -4.07242,4.82657 -4.93549,11.34927 -2.23407,17.04029 2.6852,5.683 8.32775,9.208 14.68785,9.208 h 111.38687 c 6.36012,0 11.99455,-3.525 14.68786,-9.208 2.70143,-5.68302 1.8542,-12.21372 -2.21822,-17.04029 l -24.60652,-29.14043 c -2.95291,-3.49786 -6.82404,-5.908 -11.09116,-7.30074 v -17.35295 h 59.87638 c 6.19788,0 11.75536,-3.39755 14.51358,-8.84844 l 11.72494,-23.16852 h 3.10551 c 2.85556,0 5.5651,-0.57302 8.11238,-1.46953 v 49.49497 16.00848 32.01697 c 0,8.82868 7.27682,16.00848 16.22478,16.00848 h 85.87723 c 6.58724,0 12.46594,-3.87705 14.98889,-9.88024 2.52296,-6.00318 1.13903,-12.8523 -3.51747,-17.44673 L 468.33373,446.78753 V 193.96607 c 0,-22.06769 -18.19608,-40.0212 -40.56193,-40.0212 h -24.33716 c 0,-79.442087 -65.50752,-144.0763304 -146.02296,-144.0763304 z m 0,16.0084814 c 71.56748,0 129.79818,57.454439 129.79818,128.067849 H 127.61349 c 0,-38.26027 17.18305,-72.566445 44.23786,-96.050887 h 61.22317 c 4.48615,0 8.11238,-3.585899 8.11238,-8.00424 0,-4.418341 -3.62623,-8.004241 -8.11238,-8.004241 h -38.35955 c 18.6017,-10.17339 39.9658,-16.008481 62.69671,-16.008481 z m 8.11238,16.008481 c -4.48614,0 -8.11238,3.5859 -8.11238,8.004241 0,4.418341 3.62624,8.00424 8.11238,8.00424 h 32.44955 c 4.48615,0 8.11239,-3.585899 8.11239,-8.00424 0,-4.418341 -3.62624,-8.004241 -8.11239,-8.004241 z m -8.11238,32.016963 c -17.89592,0 -32.44955,14.359608 -32.44955,32.016955 0,17.65736 14.55363,32.01697 32.44955,32.01697 17.89593,0 32.44954,-14.35961 32.44954,-32.01697 0,-17.657347 -14.55361,-32.016955 -32.44954,-32.016955 z m 0,16.008481 c 8.94797,0 16.22477,7.179804 16.22477,16.008474 0,8.82869 -7.2768,16.00849 -16.22477,16.00849 -8.94796,0 -16.22478,-7.1798 -16.22478,-16.00849 0,-8.82867 7.27682,-16.008474 16.22478,-16.008474 z m 64.89909,0 A 16.224773,16.008481 0 0 0 306.086,105.91942 16.224773,16.008481 0 0 0 322.31077,121.92791 16.224773,16.008481 0 0 0 338.53554,105.91942 16.224773,16.008481 0 0 0 322.31077,89.910946 Z M 87.051556,169.95335 h 24.337164 v 64.03393 H 62.714396 v -40.02121 c 0,-13.239 10.919273,-24.01272 24.33716,-24.01272 z m 40.561934,0 h 259.59637 v 200.10602 c 0,4.41034 -3.63434,8.00424 -8.11238,8.00424 h -243.3716 c -4.47804,0 -8.11239,-3.5939 -8.11239,-8.00424 z m 275.82115,0 h 24.33716 c 13.41789,0 24.33716,10.77372 24.33716,24.01272 v 40.02121 h -48.67432 z m -251.48399,16.00848 c -4.48615,0 -8.11239,3.5859 -8.11239,8.00424 v 16.00848 c 0,4.41834 3.62624,8.00425 8.11239,8.00425 4.48615,0 8.11239,-3.58591 8.11239,-8.00425 v -16.00848 c 0,-4.41834 -3.62624,-8.00424 -8.11239,-8.00424 z m 40.56193,0 c -4.48615,0 -8.11238,3.5859 -8.11238,8.00424 v 16.00848 c 0,4.41834 3.62623,8.00425 8.11238,8.00425 4.48615,0 8.11239,-3.58591 8.11239,-8.00425 v -16.00848 c 0,-4.41834 -3.62624,-8.00424 -8.11239,-8.00424 z m 40.56194,0 c -4.48615,0 -8.11239,3.5859 -8.11239,8.00424 v 16.00848 c 0,4.41834 3.62624,8.00425 8.11239,8.00425 4.48615,0 8.11238,-3.58591 8.11238,-8.00425 v -16.00848 c 0,-4.41834 -3.62623,-8.00424 -8.11238,-8.00424 z m 48.67432,0 c -4.48615,0 -8.11239,3.5859 -8.11239,8.00424 v 16.00848 c 0,4.41834 3.62624,8.00425 8.11239,8.00425 4.48615,0 8.11238,-3.58591 8.11238,-8.00425 v -16.00848 c 0,-4.41834 -3.62623,-8.00424 -8.11238,-8.00424 z m 40.56193,0 c -4.48615,0 -8.11239,3.5859 -8.11239,8.00424 v 16.00848 c 0,4.41834 3.62624,8.00425 8.11239,8.00425 4.48615,0 8.11239,-3.58591 8.11239,-8.00425 v -16.00848 c 0,-4.41834 -3.62624,-8.00424 -8.11239,-8.00424 z m 40.56193,0 c -4.48614,0 -8.11238,3.5859 -8.11238,8.00424 v 16.00848 c 0,4.41834 3.62624,8.00425 8.11238,8.00425 4.48615,0 8.11239,-3.58591 8.11239,-8.00425 v -16.00848 c 0,-4.41834 -3.62624,-8.00424 -8.11239,-8.00424 z m -178.4725,48.02545 c -4.48615,0 -8.11239,3.5859 -8.11239,8.00424 0,4.41834 3.62624,8.00424 8.11239,8.00424 h 146.02296 c 4.48615,0 8.11238,-3.5859 8.11238,-8.00424 0,-4.41834 -3.62623,-8.00424 -8.11238,-8.00424 z M 62.714396,249.99576 h 48.674324 v 120.06361 72.03816 H 62.714396 Z m 340.720244,0 h 48.67432 v 192.10177 h -48.67432 v -72.03816 z m -178.47251,16.00848 c -8.94796,0 -16.22477,7.17981 -16.22477,16.00848 v 64.03393 c 0,8.82867 7.27681,16.00848 16.22477,16.00848 h 64.89909 c 8.94797,0 16.22478,-7.17981 16.22478,-16.00848 v -64.03393 c 0,-8.82867 -7.27681,-16.00848 -16.22478,-16.00848 z m 0,16.00848 h 64.89909 l 0.0162,64.03393 h -64.91528 z m -68.00461,112.05937 h 200.90832 l -8.11239,16.00849 H 289.86122 224.96213 165.0699 Z m 84.22938,32.01696 h 32.44955 v 16.00848 H 241.1869 Z M 57.961045,458.10601 h 53.427675 v 32.01697 H 25.511498 Z m 174.606455,0 h 49.70421 c 2.41749,0 4.67742,1.04356 6.22688,2.87653 l 24.6699,29.14044 h -111.4344 l 24.60652,-29.14044 c 1.54135,-1.83297 3.8094,-2.87653 6.22689,-2.87653 z m 170.86714,0 h 53.44352 l 32.51292,32.01697 h -0.0792 -85.87723 z" />
</svg>
