<?xml version="1.0" encoding="UTF-8" standalone="no"?>
<svg
   xmlns:dc="http://purl.org/dc/elements/1.1/"
   xmlns:cc="http://creativecommons.org/ns#"
   xmlns:rdf="http://www.w3.org/1999/02/22-rdf-syntax-ns#"
   xmlns:svg="http://www.w3.org/2000/svg"
   xmlns="http://www.w3.org/2000/svg"
   xmlns:sodipodi="http://sodipodi.sourceforge.net/DTD/sodipodi-0.dtd"
   xmlns:inkscape="http://www.inkscape.org/namespaces/inkscape"
   inkscape:version="1.0beta2 (2b71d25, 2019-12-03)"
   sodipodi:docname="OmegaSmaug.svg"
   viewBox="0 0 512 512"
   height="512"
   width="512"
   id="svg137"
   version="1.1">
  <metadata
     id="metadata143">
    <rdf:RDF>
      <cc:Work
         rdf:about="">
        <dc:format>image/svg+xml</dc:format>
        <dc:type
           rdf:resource="http://purl.org/dc/dcmitype/StillImage" />
        <dc:title></dc:title>
      </cc:Work>
    </rdf:RDF>
  </metadata>
  <defs
     id="defs141" />
  <sodipodi:namedview
     inkscape:current-layer="g145"
     inkscape:window-maximized="1"
     inkscape:window-y="0"
     inkscape:window-x="0"
     inkscape:cy="348.63657"
     inkscape:cx="151.88115"
     inkscape:zoom="0.69467717"
     showgrid="false"
     id="namedview139"
     inkscape:window-height="700"
     inkscape:window-width="1366"
     inkscape:pageshadow="2"
     inkscape:pageopacity="0"
     guidetolerance="10"
     gridtolerance="10"
     objecttolerance="10"
     borderopacity="1"
     inkscape:document-rotation="0"
     bordercolor="#666666"
     pagecolor="#ffffff" />
  <g
     id="g145"
     inkscape:label="Image"
     inkscape:groupmode="layer">
    <path
       inkscape:connector-curvature="0"
       id="path149"
       d="M 227.99754,497.49785 C 200.8969,494.11733 171.07175,484.90408 146.97829,472.47031 122.79885,459.99215 105.86303,447.71023 86.93425,428.92614 66.620235,408.7674 52.412465,389.03964 40.257001,364.11386 22.10169,326.88491 14.009654,289.1476 15.405465,248.21832 17.516841,186.30644 42.124806,129.41816 85.600641,85.942324 125.918,45.624964 178.48747,20.996091 235.96772,15.495124 c 48.37333,-4.629416 100.38109,7.021036 143.43317,32.130996 18.09302,10.552689 31.85199,21.314901 48.29072,37.772822 27.79771,27.830168 44.83757,54.805438 57.62837,91.229638 5.95409,16.95539 9.98258,34.56184 12.33691,53.91821 1.31949,10.84836 1.29932,39.18155 -0.0365,51.25073 -5.48111,49.52247 -26.23114,97.82247 -57.28498,133.3426 -41.13563,47.05192 -93.00792,74.54486 -155.53204,82.43385 -13.30762,1.67909 -43.05442,1.63923 -56.80585,-0.0762 z m 63.99816,-20.82336 c 4.29834,-1.73986 10.0984,-7.27172 17.96448,-17.13379 12.721,-15.9489 21.83441,-35.58388 25.52166,-54.9868 1.78748,-9.40607 2.25704,-31.94288 0.9906,-47.54512 l -0.80713,-9.94356 8.35543,-8.03357 c 4.59547,-4.41845 10.325,-10.10277 12.73227,-12.63179 l 4.37686,-4.59824 2.01148,2.82486 c 3.22269,4.52587 10.05296,19.6602 14.24051,31.55378 5.58238,15.85523 8.18813,27.95904 10.97605,50.98409 1.35471,11.1884 2.6654,21.30053 2.91264,22.47141 0.67825,3.21198 4.16245,2.67775 8.88177,-1.36181 7.53554,-6.45014 7.99752,-10.31569 4.22086,-35.31795 -1.34722,-8.91888 -2.23888,-16.42676 -1.98147,-16.68417 0.48258,-0.48258 16.33133,7.67362 22.67196,11.66761 6.18825,3.898 8.3525,3.83199 12.14922,-0.37052 7.68982,-8.51171 21.40955,-33.7186 28.17925,-51.77297 4.90639,-13.085 4.93325,-14.40985 0.32928,-16.23818 -12.83287,-5.09623 -26.47391,-14.47552 -29.63021,-20.37311 -0.87357,-1.63227 -0.44137,-1.69615 7.84799,-1.15987 10.34042,0.66897 21.39209,-0.82253 26.2261,-3.5394 5.76032,-3.23748 7.61151,-7.01243 8.79963,-17.94417 1.03836,-9.55389 1.02337,-9.70774 -1.11468,-11.43902 -1.58192,-1.28095 -3.73592,-1.75668 -7.9759,-1.76152 -8.12082,-0.009 -20.52945,-3.18855 -29.46283,-7.54882 -7.91788,-3.86462 -19.63858,-12.28659 -21.93843,-15.76396 l -1.34305,-2.0307 12.11382,-0.56261 c 28.07298,-1.30381 37.84956,-3.41849 43.69719,-9.45172 3.94662,-4.07187 4.81051,-9.28094 2.52966,-15.25327 -0.89066,-2.33215 -2.00337,-4.47759 -2.47268,-4.76764 -0.46932,-0.29006 -3.09688,1.14882 -5.83901,3.19751 -10.28723,7.68568 -21.28268,11.45186 -33.5346,11.48633 -4.94345,0.0139 -6.29622,-0.36667 -8.80399,-2.47682 -4.44755,-3.74237 -25.66723,-28.74884 -25.13125,-29.61608 0.25619,-0.41452 5.90443,-0.98085 12.55166,-1.25852 18.96714,-0.7923 33.10415,-5.37058 43.00013,-13.92561 6.21232,-5.37052 6.50173,-7.68391 2.068,-16.53101 -1.96743,-3.92584 -3.80669,-7.13199 -4.08723,-7.12478 -0.28054,0.008 -3.27761,2.37302 -6.66015,5.25734 -11.63073,9.91766 -27.27811,15.66614 -47.78132,17.55373 -15.05009,1.38557 -22.08447,0.79129 -26.16698,-2.21064 -9.33635,-6.86516 -29.02707,-16.1356 -38.8595,-18.29517 -2.63285,-0.57828 -2.6836,-0.68458 -1.14073,-2.38944 0.8881,-0.98134 3.15292,-2.0531 5.03294,-2.38172 10.63817,-1.85944 42.36267,-8.32753 48.83413,-9.95646 10.3265,-2.59928 23.6829,-9.43901 31.68724,-16.22687 7.08171,-6.00542 8.57853,-8.88571 6.56902,-12.64053 -2.03154,-3.79596 -23.3137,-23.896478 -33.53506,-31.673088 C 360.81743,55.633435 327.3804,41.637575 288.18194,35.628927 275.0935,33.622627 239.20276,33.346459 226.69238,35.155785 214.09957,36.977031 189.11995,43.511266 178.36916,47.796297 124.29848,69.347705 80.476534,109.57548 56.801392,159.39339 c -9.367211,19.71075 -17.705751,46.09037 -21.04593,66.58041 -1.943195,11.92039 -1.613854,50.62268 0.530467,62.33777 10.154202,55.47537 35.05898,96.24285 79.346801,129.8855 46.37153,35.22548 104.28006,49.42988 161.67333,39.65687 12.7455,-2.17032 15.52464,-2.23572 15.38162,-0.36194 -0.0672,0.88009 -1.65594,3.43474 -3.53058,5.67699 -1.87463,2.24226 -5.11942,6.12515 -7.21063,8.62865 -2.09122,2.5035 -3.8022,4.92048 -3.8022,5.37107 0,2.04598 8.30823,1.74954 13.85143,-0.49422 z M 123.54743,374.38822 c -14.63488,-3.13794 -29.222801,-14.22487 -36.550137,-27.77841 -3.865385,-7.14988 -5.827665,-7.94823 -10.295597,-4.18872 -1.654908,1.39252 -3.230755,2.31003 -3.501878,2.03891 -1.70814,-1.70814 -3.417964,-12.47381 -3.866162,-24.3428 -0.534952,-14.16629 0.697068,-24.84111 3.71417,-32.18138 l 1.356336,-3.2998 1.542608,2.96233 c 2.548249,4.8935 6.877748,7.91856 11.333143,7.91856 3.444285,0 4.406913,-0.53952 8.231983,-4.61373 7.680724,-8.181 22.703684,-39.84899 21.388954,-45.08733 -0.38102,-1.5181 -2.23921,-2.99934 -5.98647,-4.77208 -4.79199,-2.26697 -5.22665,-2.69421 -3.67927,-3.61641 7.20154,-4.29191 11.36263,-7.88142 23.39517,-20.18152 7.52173,-7.689 16.92346,-18.03467 20.89272,-22.9904 12.74805,-15.91627 26.48741,-28.78878 42.88569,-40.17992 16.49399,-11.45762 26.03861,-18.31081 32.1696,-23.09827 17.95841,-14.02306 32.34896,-29.10575 39.93024,-41.85075 2.43502,-4.093544 4.72134,-7.442815 5.08071,-7.442815 1.00009,0 2.86114,8.267728 3.40767,15.138635 1.25796,15.81508 -5.34623,30.97654 -26.2829,60.33854 -2.69829,3.78413 -4.68994,7.09628 -4.4259,7.36032 0.26404,0.26405 4.12911,-0.15626 8.58903,-0.93401 20.53123,-3.58034 35.56617,-3.96714 53.17899,-1.36812 30.92961,4.5641 59.48937,18.60269 82.22522,40.41792 6.97535,6.69289 20.71752,21.94911 20.21948,22.44715 -0.204,0.20399 -3.66825,-0.52543 -7.69834,-1.62093 -5.5603,-1.51145 -8.05683,-1.77631 -10.35182,-1.09824 -5.72318,1.69096 -2.78819,7.02787 11.54805,20.99865 15.36025,14.9687 34.18337,25.33501 54.12342,29.80696 l 9.53684,2.13883 -8.36599,3.24407 c -7.43026,2.88122 -9.37136,3.24376 -17.35455,3.24135 -7.8898,-0.003 -10.02951,-0.39275 -17.50405,-3.19348 -8.56508,-3.20934 -25.83003,-11.83151 -41.63125,-20.79077 -20.81855,-11.80406 -32.90923,-17.37322 -41.62113,-19.17134 -18.26285,-3.7694 -43.24668,-1.09222 -61.64968,6.60618 -3.56636,1.4919 -9.45075,3.72694 -13.07641,4.96677 -4.76486,1.6294 -7.84648,3.45179 -11.11743,6.57459 -5.66803,5.41128 -6.0032,8.59616 -1.45035,13.78158 2.08901,2.37924 2.68155,3.63335 1.84799,3.91121 -1.02562,0.34187 -13.91186,9.79805 -17.73145,13.01169 -2.35442,1.98092 -5.16099,7.64991 -5.14433,10.39108 0.0192,3.16687 3.02669,10.39431 5.43053,13.05052 2.51035,2.77391 -0.0702,3.61368 -9.23951,3.00669 -4.42332,-0.29282 -13.02479,-0.61929 -19.11438,-0.72549 -12.8437,-0.22398 -14.17305,0.41437 -14.34277,6.8873 -0.11831,4.5117 1.19416,4.45153 -13.24505,0.60721 -5.13078,-1.36603 -11.79879,-2.48368 -14.81779,-2.48368 -15.92231,0 -30.52454,10.64727 -34.57309,25.20909 -1.25727,4.52216 -1.3494,6.33158 -0.48568,9.53918 1.63295,6.06431 4.65398,9.097 19.88927,19.96603 l 4.20761,3.00174 -12.25001,-0.0771 c -6.92405,-0.0436 -15.08559,-0.68512 -18.77205,-1.47555 z M 153.7236,254.72753 c 5.3363,-1.46624 15.65823,-8.55176 20.81776,-14.29039 4.82935,-5.3714 9.53121,-12.8147 8.65096,-13.69495 -0.78127,-0.78127 -11.52559,3.15967 -16.69549,6.1238 -9.14342,5.2423 -15.92723,11.65717 -19.50642,18.44551 -2.33646,4.43136 -0.44832,5.38929 6.73319,3.41603 z m 263.0338,105.042 c -10.2052,-8.20526 -14.98,-12.7152 -18.76441,-17.72351 -4.0196,-5.31957 -21.32549,-29.41147 -29.62899,-41.24716 -20.25318,-28.86855 -43.78396,-42.8821 -75.05123,-44.69611 -12.57383,-0.72949 -14.22781,-1.48034 -8.54412,-3.87881 8.94907,-3.77641 13.39716,-4.49032 27.43755,-4.40368 12.16443,0.075 14.58941,0.37 21.39569,2.60219 12.33107,4.0441 20.60284,7.73478 29.94244,13.35962 16.13953,9.72014 21.30357,13.83081 56.50782,44.98115 9.11578,8.06605 17.85159,15.77741 19.41292,17.13634 10.26931,8.93809 9.65492,8.14854 7.5696,9.72764 -4.09629,3.10189 -15.55512,3.08982 -32.9294,-0.0347 -4.58102,-0.82384 -8.50582,-1.32117 -8.72179,-1.1052 -0.54114,0.54114 4.94725,10.96667 7.74576,14.71354 1.25872,1.68527 4.65827,5.62369 7.55456,8.75203 4.71425,5.09194 5.03227,5.68436 3.03521,5.65413 -1.22693,-0.0186 -4.35966,-1.74543 -6.96161,-3.83748 z M 310.66784,347.05212 c 3.50874,-9.14365 4.84898,-15.81909 4.83787,-24.09643 -0.0108,-8.03751 -0.33901,-9.74887 -3.10211,-16.17431 -4.81073,-11.18705 -15.57147,-22.51673 -30.46052,-32.07101 -2.60974,-1.67466 -4.74498,-3.33328 -4.74498,-3.68581 0,-1.71018 9.10656,-3.1741 16.87052,-2.71201 10.73383,0.63885 21.98308,4.40547 31.27686,10.47252 12.29004,8.02301 27.5458,23.94458 27.5458,28.74796 0,7.92094 -12.78975,22.13483 -30.74119,34.16423 -10.35445,6.93861 -12.46829,7.92442 -11.48225,5.35486 z M 280.45827,141.97236 c -0.69495,-1.811 1.09987,-8.54438 3.5662,-13.37878 2.58929,-5.07541 10.79871,-13.57607 15.35651,-15.90129 10.91781,-5.56984 17.98908,-6.69386 54.92955,-8.73131 25.89656,-1.42833 30.98445,-2.3252 37.44504,-6.600614 4.67609,-3.094489 5.31851,-3.052252 6.07665,0.399527 1.24491,5.668047 -5.84123,17.028007 -14.10081,22.605327 -9.33191,6.30142 -31.07679,13.79041 -51.32586,17.67674 -4.08437,0.7839 -16.1545,2.05408 -26.82251,2.82262 -10.668,0.76855 -20.56195,1.65353 -21.98656,1.96664 -1.82547,0.4012 -2.75198,0.14764 -3.13821,-0.85886 z"
       style="fill:#ffffff;stroke-width:0.946165" />
  </g>
</svg>
