<?xml version="1.0" encoding="UTF-8" standalone="no"?>
<svg
   xmlns:dc="http://purl.org/dc/elements/1.1/"
   xmlns:cc="http://creativecommons.org/ns#"
   xmlns:rdf="http://www.w3.org/1999/02/22-rdf-syntax-ns#"
   xmlns:svg="http://www.w3.org/2000/svg"
   xmlns="http://www.w3.org/2000/svg"
   xmlns:sodipodi="http://sodipodi.sourceforge.net/DTD/sodipodi-0.dtd"
   xmlns:inkscape="http://www.inkscape.org/namespaces/inkscape"
   version="1.0"
   inkscape:output_extension="org.inkscape.output.svg.inkscape"
   sodipodi:docname="Omega.svg"
   inkscape:version="1.0beta2 (2b71d25, 2019-12-03)"
   sodipodi:version="0.32"
   id="svg2"
   viewBox="0 -410 525.65333 486.4"
   height="512"
   width="512">
  <metadata
     id="metadata15">
    <rdf:RDF>
      <cc:Work
         rdf:about="">
        <dc:format>image/svg+xml</dc:format>
        <dc:type
           rdf:resource="http://purl.org/dc/dcmitype/StillImage" />
        <dc:title></dc:title>
      </cc:Work>
    </rdf:RDF>
  </metadata>
  <defs
     id="defs13" />
  <sodipodi:namedview
     inkscape:window-maximized="1"
     showgrid="false"
     inkscape:document-rotation="0"
     inkscape:showpageshadow="false"
     height="2000px"
     width="3000px"
     inkscape:current-layer="svg2"
     inkscape:window-y="0"
     inkscape:window-x="0"
     inkscape:cy="221.69125"
     inkscape:cx="572.34171"
     inkscape:zoom="0.56419677"
     id="base"
     pagecolor="#ffffff"
     bordercolor="#666666"
     borderopacity="1.0"
     objecttolerance="10.0"
     gridtolerance="10.0"
     guidetolerance="10.0"
     inkscape:pageopacity="0.0"
     inkscape:pageshadow="2"
     inkscape:window-width="1366"
     inkscape:window-height="700" />
  <text
     id="text2171"
     y="-946.41162"
     x="-471.24011"
     style="font-style:normal;font-weight:normal;line-height:0%;font-family:Lello;fill:#000000;fill-opacity:1;stroke:none;stroke-width:1px;stroke-linecap:butt;stroke-linejoin:miter;stroke-opacity:1"
     xml:space="preserve"><tspan
       style="font-size:12px;line-height:1.25"
       y="-946.41162"
       x="-471.24011"
       id="tspan2173"
       sodipodi:role="line"> </tspan></text>
  <path
     sodipodi:nodetypes="cccccccccccccccccccccccccccccccc"
     inkscape:connector-curvature="0"
     id="text2175"
     d="m 35.071788,-39.158317 h 12.228934 c 0.88133,15.644307 5.508489,26.551182 13.881491,32.7206696 8.37291,6.16962117 21.703532,9.254392 39.991927,9.2543259 h 90.2297 L 190.74282,-19.327616 C 155.70842,-26.378442 123.75898,-45.878612 94.894414,-77.828188 66.029668,-109.77747 51.597337,-150.09986 51.597373,-198.79546 c -3.6e-5,-53.98327 20.106072,-100.03451 60.318407,-138.1539 40.21208,-38.11857 92.70832,-57.17806 157.48881,-57.17852 62.79691,3.3e-4 114.13633,18.01333 154.01844,54.03867 39.88131,36.02614 59.82213,82.13248 59.82264,138.31915 0,45.61082 -12.39465,84.33573 -37.1826,116.174846 -24.78876,31.839414 -58.33567,53.92859 -100.6408,66.267598 l -3.30512,22.1442945 h 91.88225 c 20.93198,6.61e-5 34.75837,-3.9660586 41.47922,-11.8984323 6.71995,-7.9322002 10.30048,-17.9577102 10.74164,-30.0765632 h 12.22891 V 64.291855 H 313.36263 l 8.5933,-99.814545 c 56.84768,-17.847515 85.27162,-70.39882 85.27202,-157.65407 0,-57.06804 -13.93695,-100.80571 -41.80973,-131.21315 -27.87347,-30.40665 -60.53901,-45.61017 -97.99671,-45.61061 -39.88194,3.3e-4 -72.878,16.14041 -98.98824,48.41996 -26.11056,32.28033 -39.16576,73.53917 -39.16563,123.77663 -1.3e-4,36.35652 5.83891,69.46274 17.51711,99.318756 11.67793,29.856362 34.04254,50.843835 67.09387,62.962484 l 6.27971,99.814545 H 35.071788 Z"
     style="font-style:normal;font-weight:normal;font-size:2050.28px;font-family:'Times New Roman';fill:#ffffff;fill-opacity:1;stroke:none;stroke-width:0.330145px;stroke-linecap:butt;stroke-linejoin:miter;stroke-opacity:1" />
</svg>
