<?xml version="1.0" encoding="UTF-8" standalone="no"?>
<svg
   xmlns:dc="http://purl.org/dc/elements/1.1/"
   xmlns:cc="http://creativecommons.org/ns#"
   xmlns:rdf="http://www.w3.org/1999/02/22-rdf-syntax-ns#"
   xmlns:svg="http://www.w3.org/2000/svg"
   xmlns="http://www.w3.org/2000/svg"
   xmlns:sodipodi="http://sodipodi.sourceforge.net/DTD/sodipodi-0.dtd"
   xmlns:inkscape="http://www.inkscape.org/namespaces/inkscape"
   sodipodi:docname="HaloSpartans.svg"
   inkscape:version="1.0beta2 (2b71d25, 2019-12-03)"
   id="svg1434"
   version="1.1"
   viewBox="0 0 135.46666 135.46667"
   height="512"
   width="512">
  <defs
     id="defs1428" />
  <sodipodi:namedview
     inkscape:window-maximized="0"
     inkscape:window-y="0"
     inkscape:window-x="0"
     inkscape:window-height="700"
     inkscape:window-width="1366"
     units="px"
     showgrid="false"
     inkscape:document-rotation="0"
     inkscape:current-layer="layer1"
     inkscape:document-units="mm"
     inkscape:cy="367.23411"
     inkscape:cx="1006.2626"
     inkscape:zoom="0.49497475"
     inkscape:pageshadow="2"
     inkscape:pageopacity="0.0"
     borderopacity="1.0"
     bordercolor="#666666"
     pagecolor="#ffffff"
     id="base" />
  <metadata
     id="metadata1431">
    <rdf:RDF>
      <cc:Work
         rdf:about="">
        <dc:format>image/svg+xml</dc:format>
        <dc:type
           rdf:resource="http://purl.org/dc/dcmitype/StillImage" />
        <dc:title></dc:title>
      </cc:Work>
    </rdf:RDF>
  </metadata>
  <g
     id="layer1"
     inkscape:groupmode="layer"
     inkscape:label="Camada 1">
    <path
       inkscape:connector-curvature="0"
       id="path1607"
       d="m 3.1757006,131.03915 c 0.00757,-2.50878 2.2122904,-7.15458 4.932941,-10.39448 1.1924727,-1.42006 6.1148384,-6.66814 10.9385924,-11.66242 l 8.770465,-9.080514 4.022554,3.829614 4.022556,3.82961 -2.355277,2.50087 c -9.752374,10.35522 -15.827125,16.30598 -18.886018,18.50054 -3.976839,2.85308 -5.3041327,3.4481 -8.9478889,4.01132 l -2.50368,0.38699 0.00579,-1.92153 z m 127.5346694,1.33162 c -5.16084,-0.9385 -9.3996,-3.88873 -17.08674,-11.8926 -2.59358,-2.70044 -6.38021,-6.64923 -8.41471,-8.77509 l -3.69912,-3.86523 3.88352,-3.99988 3.88351,-3.999894 8.77709,9.104804 c 10.22648,10.60832 12.61652,13.38047 14.18249,16.45003 1.25652,2.46298 2.18479,7.59775 1.35226,7.48012 -0.28704,-0.0405 -1.58228,-0.26657 -2.8783,-0.50226 z m -77.519217,-14.52972 -5.202581,-5.09101 1.815951,-2.52868 c 0.998774,-1.39077 2.560828,-3.40761 3.471238,-4.48188 l 1.655281,-1.95322 1.854948,1.03093 c 1.56103,0.86758 3.426679,1.03093 11.774191,1.03093 8.34751,0 10.21316,-0.16336 11.774189,-1.03093 l 1.854949,-1.03093 1.65528,1.95322 c 0.91041,1.07427 2.472464,3.09111 3.471238,4.48188 l 1.815952,2.52868 -5.202582,5.09101 -5.20259,5.09099 H 68.560181 58.393744 Z m 7.289222,3.17643 c 0.780259,-0.58515 1.015091,-1.94616 1.14352,-6.6274 l 0.161625,-5.89101 6.432402,-0.16821 c 4.749598,-0.1242 6.558116,0.03 6.912919,0.5891 0.264281,0.41653 0.484575,3.20012 0.489537,6.18578 0.0078,4.75871 0.149599,5.50368 1.148494,6.03827 0.626709,0.33543 1.297608,0.60984 1.490886,0.60984 0.193262,0 0.276977,-3.24742 0.186004,-7.21648 l -0.165409,-7.2165 h -9.72017 -9.72017 l -0.165409,7.2165 c -0.09097,3.96906 0.0572,7.21648 0.329232,7.21648 0.272052,0 0.936493,-0.33137 1.476539,-0.73637 z M 38.020238,103.16314 29.6795,95.127254 V 88.78511 c 0,-5.604033 0.147886,-6.530165 1.270704,-7.957592 1.008654,-1.282297 1.371263,-2.847646 1.75832,-7.590488 0.268187,-3.286276 0.756006,-8.228359 1.084039,-10.982406 0.328036,-2.754051 0.597174,-5.346231 0.598087,-5.760398 8.83e-4,-0.414168 1.433659,-2.085825 3.183879,-3.71479 1.750218,-1.628965 3.509021,-3.750732 3.908451,-4.715044 0.907369,-2.190577 1.415239,-1.882985 0.568436,0.344278 -0.616901,1.622562 -0.606746,1.631722 1.440835,1.299444 1.134167,-0.184044 2.798078,-0.685896 3.697576,-1.11521 1.397019,-0.666768 1.661555,-1.185682 1.814403,-3.55919 l 0.178946,-2.778614 -2.53535,0.884206 c -1.394437,0.486316 -2.89413,1.341148 -3.33265,1.899622 -0.713396,0.908554 -0.752801,0.860423 -0.374417,-0.457343 0.232585,-0.810014 0.996224,-2.641925 1.696972,-4.070909 1.201725,-2.450587 1.621289,-2.743351 7.387157,-5.154634 3.362191,-1.406067 6.138484,-2.556285 6.169546,-2.556042 0.03104,2.43e-4 0.132568,5.566349 0.225549,12.369124 0.1093,7.996473 -0.05419,12.785878 -0.462549,13.548895 -0.592725,1.107504 -1.229073,1.180198 -10.331069,1.180198 H 37.92692 v 7.58115 c 0,8.959876 1.217312,16.704013 3.259091,20.733272 1.933353,3.815289 6.850291,7.646098 12.925785,10.070546 2.600519,1.037746 5.302419,2.252465 6.004227,2.699365 1.571798,1.00089 2.233978,2.50916 1.101601,2.50916 -0.454002,0 -0.989435,-0.51663 -1.189841,-1.14808 -0.337543,-1.06347 -2.589279,-2.27039 -3.239969,-1.73658 -0.156703,0.12853 -0.206309,0.69763 -0.110257,1.26463 0.138734,0.81894 -0.249857,1.03093 -1.889796,1.03093 -1.843057,0 -2.362672,0.39486 -4.845162,3.68188 -1.529395,2.02504 -2.960918,3.89172 -3.181171,4.14822 -0.220248,0.25647 -4.153788,-3.14983 -8.741194,-7.56957 z m -1.402601,-7.068598 c 2.418264,-1.69382 1.128042,-5.56306 -1.855035,-5.56306 -1.761735,0 -2.726697,1.072269 -2.726697,3.029925 0,1.399563 1.750664,3.450189 2.945506,3.450189 0.179815,0 0.916122,-0.412678 1.636226,-0.917054 z m 0,-8.247418 c 2.206888,-1.545767 1.179661,-5.563061 -1.422482,-5.563061 -2.884339,0 -4.290648,3.497253 -2.23352,5.554384 1.164791,1.164788 2.002577,1.166778 3.656002,0.0086 z m 50.922501,19.186036 c -2.537165,-3.39036 -3.349234,-4.08325 -4.968144,-4.23897 -1.468789,-0.14127 -1.941873,-0.47011 -1.962754,-1.36433 -0.03569,-1.527534 -1.363665,-1.2603 -3.037006,0.61109 -1.228859,1.3743 -2.531939,1.91743 -2.531939,1.05532 0,-1.15581 2.446518,-2.69204 7.272264,-4.56645 6.582265,-2.556662 11.269147,-6.087063 13.47655,-10.151238 2.284601,-4.206312 3.478315,-11.894951 3.275233,-21.095592 l -0.165453,-7.495525 -9.815269,0.07982 -9.81527,0.07983 -0.365154,-1.662519 c -0.608304,-2.769595 -0.107831,-25.527516 0.555353,-25.253691 0.324006,0.133769 3.030149,1.226447 6.013643,2.428149 5.450372,2.19532 6.458152,3.045366 7.672462,6.471591 0.344501,0.972018 0.821689,2.297494 1.060424,2.945506 0.400364,1.086752 0.370749,1.099387 -0.381573,0.162804 -0.448596,-0.558474 -1.956536,-1.413306 -3.350972,-1.899622 l -2.535351,-0.884206 0.178946,2.778614 c 0.152852,2.373507 0.417384,2.892421 1.814404,3.55919 0.899498,0.429314 2.563408,0.931157 3.697575,1.11521 2.035522,0.330321 2.054314,0.31412 1.457321,-1.256094 -0.94866,-2.495167 -0.662698,-2.605894 0.59254,-0.229442 0.629897,1.192534 2.441023,3.260846 4.024738,4.596251 l 2.879474,2.42801 0.69267,6.302123 c 0.38097,3.466166 0.90265,9.031711 1.15929,12.367879 0.40361,5.246831 0.63807,6.185859 1.73666,6.955341 1.17271,0.821397 1.27007,1.397625 1.27007,7.517069 v 6.627476 l -7.805602,7.667326 c -4.293076,4.21703 -8.088331,7.83262 -8.43391,8.03463 -0.345572,0.20201 -1.993124,-1.45646 -3.661222,-3.68553 z M 104.22166,95.571555 c 1.99536,-1.995369 0.89699,-5.040073 -1.81821,-5.040073 -3.023545,0 -4.340416,3.854229 -1.90072,5.56306 1.73006,1.211769 2.02574,1.170189 3.71893,-0.522987 z m -0.0629,-7.733108 c 2.08302,-2.083009 0.77662,-5.554384 -2.09029,-5.554384 -2.727842,0 -3.844355,3.967039 -1.56571,5.563061 1.65343,1.158101 2.49121,1.156111 3.656,-0.0086 z M 59.730148,55.450503 c 0.0035,-1.603828 0.170796,-3.91016 0.371629,-5.12518 l 0.365143,-2.209132 h 8.093261 8.093261 l 0.365141,2.209132 c 0.200833,1.21502 0.368065,3.521352 0.37163,5.12518 0.0053,2.26804 -0.150602,2.758955 -0.700436,2.209129 -0.475023,-0.475021 -3.141871,-0.706922 -8.129596,-0.706922 -4.987727,0 -7.654575,0.231901 -8.129598,0.706922 -0.549826,0.549826 -0.705478,0.05892 -0.700435,-2.209129 z m -41.116589,-5.05175 c -2.381054,-2.289935 -3.025408,-3.270154 -2.740253,-4.168598 0.282294,-0.88943 0.741582,-1.104163 1.891504,-0.884341 0.835276,0.159687 1.803293,-0.02263 2.151151,-0.405078 0.34786,-0.382461 2.156771,-2.32318 4.019802,-4.312697 1.863033,-1.989516 3.387333,-4.149807 3.387333,-4.800647 0,-2.001494 -14.364918,-18.933565 -16.062956,-18.933565 -0.328099,0 -0.901368,0.416877 -1.2739349,0.926392 C 9.3950694,18.628644 8.9773018,18.452423 6.7054834,16.436361 4.1633022,14.180372 4.0966779,14.029145 3.8688755,9.9975891 L 3.6355915,5.869069 6.6203281,5.4731285 c 3.6482239,-0.4839527 6.0626579,0.4288469 8.8324189,3.339179 1.888241,1.9840755 1.920065,2.0906595 0.736376,2.4663475 -0.680434,0.21595 -1.237153,0.745837 -1.237153,1.1775 0,1.920882 17.282638,15.630597 19.704128,15.630597 2.002799,0 9.456383,-7.81051 9.456383,-9.909214 0,-2.680646 1.979456,-2.300483 5.235778,1.005554 2.017118,2.047909 2.763656,3.219779 2.495816,3.917759 -0.245185,0.638938 -0.79663,0.887473 -1.538603,0.693443 -0.854918,-0.223566 -2.156812,0.719037 -4.992999,3.615047 -2.110095,2.154606 -3.839784,4.340297 -3.843743,4.857091 -0.0043,0.516791 0.516735,1.413785 1.157112,1.993315 1.156641,1.046748 1.155062,1.064693 -0.239982,2.722606 -0.772366,0.917899 -1.980658,3.400877 -2.685099,5.517725 -0.704441,2.116849 -1.470484,3.848811 -1.702316,3.848811 -0.231834,0 -1.456951,-1.060383 -2.722483,-2.356404 -1.265534,-1.296023 -2.585647,-2.356407 -2.933587,-2.356407 -0.347942,0 -2.414905,1.796048 -4.593253,3.991221 -2.863128,2.885234 -3.960633,4.41857 -3.960633,5.533433 0,1.204071 -1.016066,2.366068 -1.962762,2.244664 -0.0545,-0.0069 -1.499977,-1.359981 -3.212168,-3.006643 z m 95.454701,2.626615 c -0.40501,-0.162002 -0.73638,-1.008584 -0.73638,-1.881283 0,-1.177059 -1.0305,-2.609336 -3.99122,-5.547373 -2.19517,-2.178348 -4.26212,-3.960634 -4.59325,-3.960634 -0.33112,0 -1.63747,1.060384 -2.903,2.356407 -1.26553,1.296021 -2.49066,2.356404 -2.722495,2.356404 -0.23183,0 -0.997871,-1.731962 -1.702315,-3.848811 -0.704441,-2.116848 -1.912734,-4.599826 -2.6851,-5.517725 -1.395044,-1.657913 -1.396623,-1.675858 -0.239981,-2.722606 0.640378,-0.57953 1.164316,-1.454008 1.164316,-1.943283 0,-0.489274 -1.656845,-2.635227 -3.681883,-4.768781 -2.736921,-2.883594 -4.024473,-3.835294 -5.016727,-3.708151 -2.566554,0.328867 -2.23705,-1.560966 0.811876,-4.65644 3.19105,-3.239766 5.364109,-3.726799 5.074336,-1.137273 -0.124151,1.109421 0.825132,2.435934 4.108963,5.741832 4.33905,4.368192 5.54724,4.91204 7.8684,3.541849 2.18277,-1.28849 10.57077,-7.897607 13.99378,-11.026045 3.5982,-3.288551 4.06706,-4.404816 2.11094,-5.025666 -1.17071,-0.371569 -1.11435,-0.522078 1.01032,-2.6979375 2.59435,-2.6568449 5.22451,-3.5683281 8.85918,-3.0701427 l 2.56331,0.3513403 v 3.3400847 c 0,3.5851762 -1.16899,5.8311602 -4.32852,8.3164492 -1.36385,1.072797 -1.61159,1.11198 -1.92168,0.30391 -0.19577,-0.510215 -0.66664,-0.927666 -1.04634,-0.927666 -1.17045,0 -12.60934,12.396659 -15.35238,16.637819 -1.48104,2.289888 -0.89634,3.687322 3.43637,8.213046 3.02364,3.158336 4.02745,3.870394 5.07136,3.597405 1.17827,-0.308123 2.3236,0.521785 2.35013,1.702914 0.01,0.446263 -5.73706,6.021499 -6.36713,6.176728 -0.21917,0.05401 -0.72987,-0.03433 -1.13488,-0.196379 z M 60.585146,45.948011 c -0.827669,-0.82767 -0.952076,-1.933535 -0.758814,-6.74521 0.238649,-5.941672 0.59506,-7.119354 1.792273,-5.922141 0.952494,0.952494 12.930656,0.952494 13.88315,0 1.213819,-1.213819 1.594937,0.04658 1.799922,5.952528 0.269049,7.751689 0.322242,7.704803 -8.741496,7.704803 -5.756898,0 -7.159125,-0.17407 -7.975035,-0.98998 z"
       style="fill:#ffffff;stroke-width:0.5891" />
  </g>
</svg>
