<?xml version="1.0" encoding="UTF-8" standalone="no"?>
<svg
   xmlns:dc="http://purl.org/dc/elements/1.1/"
   xmlns:cc="http://creativecommons.org/ns#"
   xmlns:rdf="http://www.w3.org/1999/02/22-rdf-syntax-ns#"
   xmlns:svg="http://www.w3.org/2000/svg"
   xmlns="http://www.w3.org/2000/svg"
   xmlns:sodipodi="http://sodipodi.sourceforge.net/DTD/sodipodi-0.dtd"
   xmlns:inkscape="http://www.inkscape.org/namespaces/inkscape"
   version="1.0"
   inkscape:output_extension="org.inkscape.output.svg.inkscape"
   sodipodi:docname="Phoenix.svg"
   inkscape:version="1.0beta2 (2b71d25, 2019-12-03)"
   sodipodi:version="0.32"
   id="svg2"
   viewBox="0 -410 525.65333 486.4"
   height="512"
   width="512">
  <metadata
     id="metadata15">
    <rdf:RDF>
      <cc:Work
         rdf:about="">
        <dc:format>image/svg+xml</dc:format>
        <dc:type
           rdf:resource="http://purl.org/dc/dcmitype/StillImage" />
        <dc:title></dc:title>
      </cc:Work>
    </rdf:RDF>
  </metadata>
  <defs
     id="defs13" />
  <sodipodi:namedview
     inkscape:window-maximized="1"
     showgrid="false"
     inkscape:document-rotation="0"
     inkscape:showpageshadow="false"
     height="2000px"
     width="3000px"
     inkscape:current-layer="svg2"
     inkscape:window-y="0"
     inkscape:window-x="0"
     inkscape:cy="212.39381"
     inkscape:cx="377.89908"
     inkscape:zoom="0.56419677"
     id="base"
     pagecolor="#ffffff"
     bordercolor="#666666"
     borderopacity="1.0"
     objecttolerance="10.0"
     gridtolerance="10.0"
     guidetolerance="10.0"
     inkscape:pageopacity="0.0"
     inkscape:pageshadow="2"
     inkscape:window-width="1366"
     inkscape:window-height="700" />
  <text
     id="text2171"
     y="-946.41162"
     x="-471.24011"
     style="font-style:normal;font-weight:normal;line-height:0%;font-family:Lello;fill:#000000;fill-opacity:1;stroke:none;stroke-width:1px;stroke-linecap:butt;stroke-linejoin:miter;stroke-opacity:1"
     xml:space="preserve"><tspan
       style="font-size:12px;line-height:1.25"
       y="-946.41162"
       x="-471.24011"
       id="tspan2173"
       sodipodi:role="line"> </tspan></text>
  <path
     inkscape:connector-curvature="0"
     id="path281"
     d="M 282.97011,76.439459 C 237.79631,68.129671 208.6834,43.618155 198.98194,5.7260535 195.2873,-8.7047439 196.58107,-33.919222 201.79588,-49.11568 c 7.62943,-22.233068 21.23616,-40.526951 43.93803,-59.07342 12.14295,-9.92027 38.6954,-26.56518 38.6954,-24.25692 0,0.35634 -3.00698,4.14886 -6.682,8.4278 -15.89909,18.51135 -30.79639,45.275316 -36.41253,65.417812 -4.06645,14.584211 -3.61736,37.37205 0.97781,49.6124157 7.76844,20.6929083 20.82566,34.3532143 42.57967,44.5459983 39.76809,18.633291 96.70024,9.166334 141.00156,-23.446446 5.01356,-3.6907349 9.45096,-6.3750068 9.86093,-5.9650258 0.40997,0.4099704 -1.5933,4.5595718 -4.45179,9.2213058 -18.0645,29.460687 -45.23745,49.031378 -81.03673,58.364877 -17.51744,4.567119 -50.06595,5.876263 -67.29612,2.706742 z m 33.75338,-37.935572 c 0.29559,-0.286286 7.17501,-2.194322 15.28744,-4.240113 73.6934,-18.583766 127.068,-75.416031 141.51855,-150.685964 3.6601,-19.06491 3.33359,-49.41617 -0.75055,-69.76818 -7.72207,-38.47994 -27.33626,-73.95335 -55.58403,-100.52687 -54.42564,-51.19969 -131.91313,-65.84206 -201.01382,-37.98446 -6.82047,2.74963 -12.61389,4.78627 -12.8742,4.5259 -1.09805,-1.098 15.75561,-10.90574 28.59165,-16.63851 33.09162,-14.77927 68.79262,-20.54587 102.18144,-16.50482 27.88395,3.37478 45.86359,8.84723 70.00281,21.30662 19.477,10.05302 32.37401,19.62896 48.88273,36.29503 26.7003,26.95463 44.22499,58.80212 52.89897,96.13268 3.20994,13.8143 3.77394,19.69121 3.79782,39.57081 0.032,26.49596 -1.95029,38.98171 -10.01453,63.081356 C 482.7149,-46.329332 445.574,-3.6505428 398.97563,18.75033 c -18.11449,8.708032 -28.45755,12.199965 -46.87882,15.826902 -13.08462,2.576194 -36.68425,5.195889 -35.37332,3.926655 z M 184.26469,13.95422 c -14.33476,-22.1215254 -21.76646,-40.110228 -26.19192,-63.398388 -2.66321,-14.015071 -3.42964,-41.493537 -1.64393,-58.940242 l 1.13781,-11.1155 -15.00005,-0.73246 c -10.36236,-0.50599 -17.52021,-1.69835 -23.15139,-3.85658 -9.02958,-3.46074 -23.12666,-11.80848 -30.700238,-18.17944 l -4.924015,-4.14221 4.377494,0.81495 c 25.295579,4.70919 39.482729,4.65698 58.154079,-0.214 l 10.00089,-2.60903 -20.21519,-1.78175 c -65.201386,-5.74672 -93.6939,-28.28271 -108.535872,-85.84569 -2.385737,-9.25296 -4.337733,-18.39264 -4.337733,-20.31041 0,-3.12611 0.716435,-2.72089 6.925471,3.91706 11.689059,12.49663 27.46471,24.14861 43.0907,31.82709 18.244534,8.96527 28.095874,11.59614 47.019854,12.55708 l 14.59189,0.74097 -11.67349,-6.09706 c -38.369117,-20.04006 -58.982759,-51.5963 -59.071874,-90.42947 -0.05543,-24.07026 8.896336,-52.94528 24.222043,-78.13359 4.658376,-7.65615 20.191201,-28.20653 21.352251,-28.24967 0.60195,-0.0223 1.09656,6.3615 1.09912,14.1864 0.0224,67.20275 47.17111,147.61927 105.19414,179.41694 23.14297,12.68276 51.96028,17.94529 71.18753,13.00006 8.81511,-2.26725 22.67074,-8.31609 25.59586,-11.17415 0.81589,-0.79722 -0.31137,-7.8948 -2.86937,-18.06679 -4.6766,-18.59657 -4.43122,-22.92448 2.31656,-40.85061 l 3.25098,-8.63673 3.13628,10.8738 c 6.69235,23.20254 14.3511,29.77692 48.27087,41.43636 26.92938,9.2566 29.2179,10.93255 33.76233,24.72428 1.33416,4.04892 4.85877,10.97316 7.8326,15.38721 9.27838,13.77207 10.72436,17.49857 10.75762,27.72458 0.0171,5.2166 -0.83337,13.40511 -1.88963,18.1967 l -1.92056,8.71197 -4.961,-10.44288 c -15.09013,-31.76445 -43.59021,-33.43378 -109.11021,-6.39089 -64.44935,26.60093 -102.84969,61.453758 -114.30125,103.741791 -3.84547,14.200292 -3.43945,42.1713891 0.84446,58.1879051 1.79817,6.7229169 3.04248,12.4504789 2.765,12.7279179 -0.27736,0.277438 -3.15206,-3.581549 -6.38811,-8.575524 z m 198.22205,-215.74978 c -4.68854,-4.24266 -17.80205,-14.25624 -17.80205,-13.59376 0,0.46035 1.00681,3.91524 2.23736,7.67752 l 2.23746,6.84054 h 7.17437 c 3.94589,0 6.71463,-0.41593 6.15286,-0.9243 z m -129.42997,-17.24628 c -24.2715,-6.38825 -42.38417,-16.32138 -56.91915,-31.21488 -25.77043,-26.4062 -35.18205,-65.03744 -26.22208,-107.6317 2.5839,-12.28361 9.69375,-34.08782 13.59455,-41.69125 l 2.71224,-5.2868 0.84702,24.66061 c 1.65651,48.23565 12.03432,85.95156 32.24812,117.19887 8.53434,13.19263 27.45661,32.91592 37.91341,39.51831 7.30251,4.61077 10.09288,7.43278 7.13462,7.21559 -0.60195,-0.0442 -5.69087,-1.29013 -11.30873,-2.76875 z"
     style="fill:#ffffff;stroke-width:1.45919" />
</svg>
